<svg xmlns="http://www.w3.org/2000/svg" id="flag-icon-css-es" viewBox="0 0 640 480">
  <style>
    .st2{fill:#ad1519}.st3{fill:none;stroke:#000;stroke-width:.25;stroke-linejoin:round}.st4{fill:#c8b100}.st5,.st6{fill:none;stroke:#000;stroke-width:.25}.st6{stroke-width:.288}.st7{fill:#fff}.st8{fill:#058e6e}.st10,.st9{fill:none;stroke:#000;stroke-width:.374}.st10{stroke-linejoin:round}.st11{fill:#005bbf}.st12{fill:#ccc}.st14{stroke-width:.202}.st14,.st15,.st16,.st18{fill:none;stroke:#000}.st15{stroke-linecap:round;stroke-width:.25}.st16,.st18{stroke-width:4.800000e-02}.st18{fill:#c8b100;stroke-width:.374}.st19,.st20,.st21{fill:none;stroke:#000;stroke-width:8.600000e-02}.st20,.st21{stroke-width:.134}.st21{stroke-width:.173}.st36,.st37,.st38{fill:#fff;stroke:#000;stroke-width:.374}.st37,.st38{fill:#ad1519}.st38{fill:#058e6e}.st41,.st42{fill:none;stroke:#000;stroke-width:.499}.st42{fill:#c8b100}.st45{fill:none;stroke:#c8b100;stroke-width:.25}.st46{fill:#db4446}.st49{fill:#058e6e;stroke:#000;stroke-width:.499}.st51,.st53{fill:#c8b100;stroke:#000;stroke-width:.442}.st53{fill:none;stroke-width:.586}.st54{stroke-linejoin:round}.st54,.st55{fill:none;stroke:#000;stroke-width:.326}.st56,.st57,.st58,.st59{fill:none;stroke:#000;stroke-width:1.900000e-02}.st57,.st58,.st59{stroke-width:2.900000e-02}.st58,.st59{stroke-width:3.800000e-02}.st59{stroke-width:5.800000e-02}.st60,.st61,.st62,.st63{fill:none;stroke:#000;stroke-width:6.700000e-02}.st61,.st62,.st63{stroke-width:7.700000e-02}.st62,.st63{stroke-width:9.600000e-02}.st63{stroke-width:.106}.st64,.st65,.st66,.st67{fill:none;stroke:#000;stroke-width:.115}.st65,.st66,.st67{stroke-width:.125}.st66,.st67{stroke-width:.144}.st67{stroke-width:1.000000e-02}
  </style>
  <path fill="#e4302d" d="M0 0h640v480H0V0z"/>
  <path fill="#f9be2a" d="M0 120h640v240H0V120z"/>
  <path d="M127.3 213.4s-.5 0-.8-.2c-.3-.2-1.1-.9-1.1-.9l-.7-.5-.6-.8s-.7-1.1-.4-2c.3-.9.9-1.2 1.4-1.4.5-.3 1.5-.6 1.5-.6s.8-.4 1.1-.4c.3-.1 1.2-.3 1.2-.3s.3-.2.5-.3c.3-.1.6-.1.9-.2.2-.1.8-.2 1.1-.2.5 0 1.3.1 1.6.1.3 0 1.2.1 1.6.1.4 0 1.7-.1 2.1-.1h1.1c.4.1 1.2.3 1.4.4.2.1 1.5.6 2 .7.5.1 1.7.4 2.2.6.5.3.9.7 1.1 1.1.3.4.3.8.4 1 .1.3.1.8 0 1.1-.1.3-.5.8-.5.8l-.6 1-.8.6s-.5.5-1 .5c-.4 0-4.8-.8-7.7-.8s-7 .7-7 .7" class="st2"/>
  <path d="M127.3 213.4s-.5 0-.8-.2c-.3-.2-1.1-.9-1.1-.9l-.7-.5-.6-.8s-.7-1.1-.4-2c.3-.9.9-1.2 1.4-1.4.5-.3 1.5-.6 1.5-.6s.8-.4 1.1-.4c.3-.1 1.2-.3 1.2-.3s.3-.2.5-.3c.3-.1.6-.1.9-.2.2-.1.8-.2 1.1-.2.5 0 1.3.1 1.6.1.3 0 1.2.1 1.6.1.4 0 1.7-.1 2.1-.1h1.1c.4.1 1.2.3 1.4.4.2.1 1.5.6 2 .7.5.1 1.7.4 2.2.6.5.3.9.7 1.1 1.1.3.4.3.8.4 1 .1.3.1.8 0 1.1-.1.3-.5.8-.5.8l-.6 1-.8.6s-.5.5-1 .5c-.4 0-4.8-.8-7.7-.8s-7 .7-7 .7z" class="st3"/>
  <path d="M133.3 207.1c0-1.3.6-2.4 1.3-2.4.7 0 1.3 1.1 1.3 2.4 0 1.3-.6 2.4-1.3 2.4s-1.3-1.1-1.3-2.4" class="st4"/>
  <path d="M133.3 207.1c0-1.3.6-2.4 1.3-2.4.7 0 1.3 1.1 1.3 2.4 0 1.3-.6 2.4-1.3 2.4s-1.3-1.1-1.3-2.4z" class="st5"/>
  <path d="M134 207.1c0-1.2.3-2.2.6-2.2s.6 1 .6 2.2c0 1.2-.3 2.2-.6 2.2s-.6-1-.6-2.2" class="st4"/>
  <path d="M134 207.1c0-1.2.3-2.2.6-2.2s.6 1 .6 2.2c0 1.2-.3 2.2-.6 2.2s-.6-1-.6-2.2z" class="st5"/>
  <path d="M133.8 204.5c0-.5.4-.8.9-.8s.9.4.9.8c0 .5-.4.8-.9.8s-.9-.3-.9-.8" class="st4"/>
  <path d="M135.3 204.2v.6h-1.4v-.6h.4V203h-.6v-.6h.6v-.5h.6v.5h.6v.6h-.6v1.3h.4" class="st4"/>
  <path d="M135.3 204.2v.6h-1.4v-.6h.4V203h-.6v-.6h.6v-.5h.6v.5h.6v.6h-.6v1.3h.4" class="st6"/>
  <path d="M135.9 204.2v.6h-2.4v-.6h.9V203h-.6v-.6h.6v-.5h.6v.5h.6v.6h-.6v1.3h.9" class="st4"/>
  <path d="M135.9 204.2v.6h-2.4v-.6h.9V203h-.6v-.6h.6v-.5h.6v.5h.6v.6h-.6v1.3h.9" class="st6"/>
  <path d="M134.9 203.7c.4.1.6.4.6.8 0 .5-.4.8-.9.8s-.9-.4-.9-.8.3-.7.7-.8" class="st5"/>
  <path d="M134.6 213.2H130l-.1-1.1-.2-1.2-.2-1.5c-1.3-1.7-2.4-2.8-2.8-2.5.1-.3.2-.5.4-.7 1.1-.7 3.5.9 5.2 3.6.2.2.3.5.4.7h3.8c.1-.2.3-.5.4-.7 1.8-2.6 4.1-4.3 5.2-3.6.2.1.4.4.5.7-.4-.2-1.6.9-2.8 2.5l-.2 1.5-.2 1.2-.1 1.1h-4.7" class="st4"/>
  <path d="M134.6 213.2H130l-.1-1.1-.2-1.2-.2-1.5c-1.3-1.7-2.4-2.8-2.8-2.5.1-.3.2-.5.4-.7 1.1-.7 3.5.9 5.2 3.6.2.2.3.5.4.7h3.8c.1-.2.3-.5.4-.7 1.8-2.6 4.1-4.3 5.2-3.6.2.1.4.4.5.7-.4-.2-1.6.9-2.8 2.5l-.2 1.5-.2 1.2-.1 1.1h-4.7z" class="st5"/>
  <path d="M126.9 206.8c.9-.5 2.9 1.1 4.5 3.6m11.1-3.6c-.9-.5-2.9 1.1-4.5 3.6" class="st5"/>
  <path d="M127.8 215.3c-.2-.5-.6-1-.6-1 1.9-.5 4.5-.9 7.4-.9 2.9 0 5.5.4 7.4.9l-.5.9c-.2.3-.4.8-.4.8-1.7-.5-3.9-.8-6.5-.8-2.7 0-5.2.3-6.6.8.1-.1 0-.4-.2-.7" class="st4"/>
  <path d="M127.8 215.3c-.2-.5-.6-1-.6-1 1.9-.5 4.5-.9 7.4-.9 2.9 0 5.5.4 7.4.9l-.5.9c-.2.3-.4.8-.4.8-1.7-.5-3.9-.8-6.5-.8-2.7 0-5.2.3-6.6.8.1-.1 0-.4-.2-.7" class="st5"/>
  <path d="M134.6 217.7c2.3 0 4.9-.4 5.9-.6.6-.2 1-.5.9-.8 0-.2-.2-.3-.4-.4-1.4-.4-3.9-.8-6.4-.8-2.5 0-5.1.3-6.4.8-.2.1-.3.2-.4.4-.1.3.3.6.9.8 1 .2 3.6.6 5.9.6" class="st4"/>
  <path d="M134.6 217.7c2.3 0 4.9-.4 5.9-.6.6-.2 1-.5.9-.8 0-.2-.2-.3-.4-.4-1.4-.4-3.9-.8-6.4-.8-2.5 0-5.1.3-6.4.8-.2.1-.3.2-.4.4-.1.3.3.6.9.8 1 .2 3.6.6 5.9.6z" class="st5"/>
  <path d="M142.1 213.2l-.6-.5s-.5.3-1.2.2c-.7-.1-.9-.9-.9-.9s-.8.6-1.4.6c-.6-.1-1-.6-1-.6s-.7.5-1.3.4c-.6-.1-1.2-.8-1.2-.8s-.6.8-1.2.8-1.1-.5-1.1-.5-.3.6-1 .7c-.8.1-1.4-.6-1.4-.6s-.4.7-.9.9c-.5.2-1.2-.3-1.2-.3s-.1.3-.2.4c-.1.2-.3.2-.3.2l.2.5c1.9-.5 4.4-.9 7.2-.9 2.9 0 5.4.3 7.3.9l.2-.5" class="st4"/>
  <path d="M142.1 213.2l-.6-.5s-.5.3-1.2.2c-.7-.1-.9-.9-.9-.9s-.8.6-1.4.6c-.6-.1-1-.6-1-.6s-.7.5-1.3.4c-.6-.1-1.2-.8-1.2-.8s-.6.8-1.2.8-1.1-.5-1.1-.5-.3.6-1 .7c-.8.1-1.4-.6-1.4-.6s-.4.7-.9.9c-.5.2-1.2-.3-1.2-.3s-.1.3-.2.4c-.1.2-.3.2-.3.2l.2.5c1.9-.5 4.4-.9 7.2-.9 2.9 0 5.4.3 7.3.9l.2-.5z" class="st5"/>
  <path d="M134.7 210.7l.3.1c0 .1-.1.2-.1.4 0 .6.5 1 1.1 1 .5 0 .9-.3 1-.7l.1-.4v.4c.1.5.5.9 1.1.9.6 0 1.1-.5 1.1-1v-.1l.3-.3.2.4c-.1.1-.1.3-.1.4 0 .5.5 1 1 1 .4 0 .7-.2.9-.4l.2-.3v.3c0 .3.1.6.5.7 0 0 .4 0 .9-.4s.8-.7.8-.7v.4s-.5.8-.9 1.1c-.2.1-.6.3-.9.2-.3 0-.5-.3-.6-.6-.2.1-.5.2-.8.2-.6 0-1.1-.3-1.4-.8-.3.3-.7.5-1.1.5-.5 0-.9-.2-1.2-.6-.3.3-.7.4-1.1.4-.5 0-1-.2-1.3-.7-.3.4-.7.7-1.3.7-.4 0-.8-.2-1.1-.4-.3.4-.7.6-1.2.6-.4 0-.8-.2-1.1-.5-.2.5-.8.8-1.4.8-.3 0-.5-.1-.8-.2-.1.3-.3.5-.6.6-.3.1-.7-.1-.9-.2-.4-.3-1-1.1-1-1.1l.1-.4s.3.3.8.7c.5.4.9.4.9.4.3-.1.5-.4.5-.7v-.3l.2.3c.2.3.5.4.8.4.6 0 1-.4 1-1 0-.2 0-.3-.1-.4l.2-.4.3.3v.1c0 .6.5 1 1.1 1 .5 0 1-.4 1.1-.9v-.4l.1.4c.1.4.5.7 1 .7.6 0 1.1-.5 1.1-1 0-.1 0-.2-.1-.4l.4-.1" class="st4"/>
  <path d="M134.7 210.7l.3.1c0 .1-.1.2-.1.4 0 .6.5 1 1.1 1 .5 0 .9-.3 1-.7l.1-.4v.4c.1.5.5.9 1.1.9.6 0 1.1-.5 1.1-1v-.1l.3-.3.2.4c-.1.1-.1.3-.1.4 0 .5.5 1 1 1 .4 0 .7-.2.9-.4l.2-.3v.3c0 .3.1.6.5.7 0 0 .4 0 .9-.4s.8-.7.8-.7v.4s-.5.8-.9 1.1c-.2.1-.6.3-.9.2-.3 0-.5-.3-.6-.6-.2.1-.5.2-.8.2-.6 0-1.1-.3-1.4-.8-.3.3-.7.5-1.1.5-.5 0-.9-.2-1.2-.6-.3.3-.7.4-1.1.4-.5 0-1-.2-1.3-.7-.3.4-.7.7-1.3.7-.4 0-.8-.2-1.1-.4-.3.4-.7.6-1.2.6-.4 0-.8-.2-1.1-.5-.2.5-.8.8-1.4.8-.3 0-.5-.1-.8-.2-.1.3-.3.5-.6.6-.3.1-.7-.1-.9-.2-.4-.3-1-1.1-1-1.1l.1-.4s.3.3.8.7c.5.4.9.4.9.4.3-.1.5-.4.5-.7v-.3l.2.3c.2.3.5.4.8.4.6 0 1-.4 1-1 0-.2 0-.3-.1-.4l.2-.4.3.3v.1c0 .6.5 1 1.1 1 .5 0 1-.4 1.1-.9v-.4l.1.4c.1.4.5.7 1 .7.6 0 1.1-.5 1.1-1 0-.1 0-.2-.1-.4l.4-.1z" class="st5"/>
  <path d="M134.6 213.3c-2.9 0-5.5.3-7.4.9-.1 0-.3-.1-.3-.2s.1-.3.2-.3c1.9-.6 4.5-.9 7.5-.9s5.6.4 7.5.9c.1 0 .2.2.2.3 0 .1-.2.2-.3.2-1.9-.5-4.5-.9-7.4-.9" class="st4"/>
  <path d="M134.6 213.3c-2.9 0-5.5.3-7.4.9-.1 0-.3-.1-.3-.2s.1-.3.2-.3c1.9-.6 4.5-.9 7.5-.9s5.6.4 7.5.9c.1 0 .2.2.2.3 0 .1-.2.2-.3.2-1.9-.5-4.5-.9-7.4-.9z" class="st3"/>
  <path d="M131.8 214.4c0-.2.2-.4.4-.4s.4.2.4.4-.2.4-.4.4-.4-.2-.4-.4" class="st7"/>
  <path d="M131.8 214.4c0-.2.2-.4.4-.4s.4.2.4.4-.2.4-.4.4-.4-.2-.4-.4z" class="st5"/>
  <path d="M134.7 214.5h-.9c-.2 0-.3-.1-.3-.3 0-.2.1-.3.3-.3h1.9c.2 0 .3.1.3.3 0 .2-.1.3-.3.3h-1" class="st2"/>
  <path d="M134.7 214.5h-.9c-.2 0-.3-.1-.3-.3 0-.2.1-.3.3-.3h1.9c.2 0 .3.1.3.3 0 .2-.1.3-.3.3h-1" class="st5"/>
  <path d="M130 214.9l-.7.1c-.2 0-.3-.1-.4-.2 0-.2.1-.3.3-.3l.7-.1.7-.1c.2 0 .3.1.4.2 0 .2-.1.3-.3.3l-.7.1" class="st8"/>
  <path d="M130 214.9l-.7.1c-.2 0-.3-.1-.4-.2 0-.2.1-.3.3-.3l.7-.1.7-.1c.2 0 .3.1.4.2 0 .2-.1.3-.3.3l-.7.1" class="st5"/>
  <path d="M127.3 215.3l.3-.5.6.1-.4.5-.5-.1" class="st2"/>
  <path d="M127.3 215.3l.3-.5.6.1-.4.5-.5-.1" class="st5"/>
  <path d="M136.6 214.4c0-.2.2-.4.4-.4s.4.2.4.4-.2.4-.4.4-.4-.2-.4-.4" class="st7"/>
  <path d="M136.6 214.4c0-.2.2-.4.4-.4s.4.2.4.4-.2.4-.4.4-.4-.2-.4-.4z" class="st5"/>
  <path d="M139.3 214.9l.7.1c.2 0 .3-.1.4-.2 0-.2-.1-.3-.2-.3l-.7-.1-.7-.1c-.2 0-.3.1-.4.2 0 .2.1.3.3.3l.6.1" class="st8"/>
  <path d="M139.3 214.9l.7.1c.2 0 .3-.1.4-.2 0-.2-.1-.3-.2-.3l-.7-.1-.7-.1c-.2 0-.3.1-.4.2 0 .2.1.3.3.3l.6.1" class="st5"/>
  <path d="M141.9 215.4l-.2-.5-.6.1.3.6.5-.2" class="st2"/>
  <path d="M141.9 215.4l-.2-.5-.6.1.3.6.5-.2" class="st5"/>
  <path d="M134.6 217.1c-2.3 0-4.4-.2-6.1-.6 1.6-.4 3.7-.7 6.1-.7 2.3 0 4.5.3 6.1.7-1.6.4-3.7.6-6.1.6" class="st2"/>
  <path d="M134.6 217.1c-2.3 0-4.4-.2-6.1-.6 1.6-.4 3.7-.7 6.1-.7 2.3 0 4.5.3 6.1.7-1.6.4-3.7.6-6.1.6z" class="st3"/>
  <path d="M142 212.1c.1-.2 0-.4-.1-.4s-.3.1-.4.3c-.1.2 0 .4.1.4.2-.1.3-.2.4-.3" class="st4"/>
  <path d="M142 212.1c.1-.2 0-.4-.1-.4s-.3.1-.4.3c-.1.2 0 .4.1.4.2-.1.3-.2.4-.3z" class="st5"/>
  <path d="M137.4 211.1c0-.2-.1-.4-.2-.4s-.3.1-.3.3c0 .2.1.4.2.4.1.1.2-.1.3-.3" class="st4"/>
  <path d="M137.4 211.1c0-.2-.1-.4-.2-.4s-.3.1-.3.3c0 .2.1.4.2.4.1.1.2-.1.3-.3z" class="st5"/>
  <path d="M131.9 211.1c0-.2.1-.4.2-.4s.3.1.3.3c0 .2-.1.4-.2.4-.1.1-.2-.1-.3-.3" class="st4"/>
  <path d="M131.9 211.1c0-.2.1-.4.2-.4s.3.1.3.3c0 .2-.1.4-.2.4-.1.1-.2-.1-.3-.3z" class="st5"/>
  <path d="M127.3 212.1c-.1-.2 0-.4.1-.4s.3.1.3.3c.1.2 0 .4-.1.4l-.3-.3" class="st4"/>
  <path d="M127.3 212.1c-.1-.2 0-.4.1-.4s.3.1.3.3c.1.2 0 .4-.1.4l-.3-.3z" class="st5"/>
  <path d="M134.6 208.5l-.8.5.6 1.3.2.1.2-.1.6-1.3-.8-.5" class="st4"/>
  <path d="M134.6 208.5l-.8.5.6 1.3.2.1.2-.1.6-1.3-.8-.5" class="st5"/>
  <path d="M132.8 210.5l.4.5 1.3-.4.1-.2-.1-.2-1.3-.4-.4.7" class="st4"/>
  <path d="M132.8 210.5l.4.5 1.3-.4.1-.2-.1-.2-1.3-.4-.4.7" class="st5"/>
  <path d="M136.4 210.5l-.4.5-1.3-.4-.1-.2.1-.2 1.3-.4.4.7" class="st4"/>
  <path d="M136.4 210.5l-.4.5-1.3-.4-.1-.2.1-.2 1.3-.4.4.7" class="st5"/>
  <path d="M129.3 209.1l-.6.6.8 1.1.2.1.2-.2.3-1.3-.9-.3" class="st4"/>
  <path d="M129.3 209.1l-.6.6.8 1.1.2.1.2-.2.3-1.3-.9-.3" class="st5"/>
  <path d="M127.9 211.2l.5.5 1.2-.6.1-.2-.2-.2-1.3-.1-.3.6" class="st4"/>
  <path d="M127.9 211.2l.5.5 1.2-.6.1-.2-.2-.2-1.3-.1-.3.6" class="st5"/>
  <path d="M131.5 210.5l-.2.6-1.3-.1-.2-.2.1-.2 1.2-.6.4.5" class="st4"/>
  <path d="M131.5 210.5l-.2.6-1.3-.1-.2-.2.1-.2 1.2-.6.4.5" class="st5"/>
  <path d="M126.6 211.4l-.1.6-1.3.1-.2-.1v-.2l1-.8.6.4" class="st4"/>
  <path d="M126.6 211.4l-.1.6-1.3.1-.2-.1v-.2l1-.8.6.4" class="st5"/>
  <path d="M129.2 210.9c0-.2.2-.4.5-.4s.5.2.5.4c0 .3-.2.5-.5.4-.3 0-.5-.2-.5-.4" class="st4"/>
  <path d="M129.2 210.9c0-.2.2-.4.5-.4s.5.2.5.4c0 .3-.2.5-.5.4-.3 0-.5-.2-.5-.4z" class="st5"/>
  <path d="M140 209.1l.6.6-.8 1.1-.2.1-.2-.2-.3-1.3.9-.3" class="st4"/>
  <path d="M140 209.1l.6.6-.8 1.1-.2.1-.2-.2-.3-1.3.9-.3" class="st5"/>
  <path d="M141.4 211.2l-.5.5-1.2-.6-.1-.2.2-.2 1.3-.1.3.6" class="st4"/>
  <path d="M141.4 211.2l-.5.5-1.2-.6-.1-.2.2-.2 1.3-.1.3.6" class="st5"/>
  <path d="M137.8 210.5l.2.6 1.3-.1.2-.2-.1-.2-1.2-.6-.4.5" class="st4"/>
  <path d="M137.8 210.5l.2.6 1.3-.1.2-.2-.1-.2-1.2-.6-.4.5" class="st5"/>
  <path d="M142.5 211.4l.1.6 1.3.1.2-.1v-.2l-1-.8-.6.4" class="st4"/>
  <path d="M142.5 211.4l.1.6 1.3.1.2-.1v-.2l-1-.8-.6.4" class="st5"/>
  <path d="M134.2 210.4c0-.3.2-.5.5-.4.3 0 .5.2.5.4 0 .3-.2.5-.5.4-.3.1-.5-.1-.5-.4" class="st4"/>
  <path d="M134.2 210.4c0-.3.2-.5.5-.4.3 0 .5.2.5.4 0 .3-.2.5-.5.4-.3.1-.5-.1-.5-.4z" class="st5"/>
  <path d="M139.1 210.9c0-.2.2-.4.5-.4s.5.2.5.4c0 .3-.2.5-.5.4-.2 0-.4-.2-.5-.4" class="st4"/>
  <path d="M139.1 210.9c0-.2.2-.4.5-.4s.5.2.5.4c0 .3-.2.5-.5.4-.2 0-.4-.2-.5-.4z" class="st5"/>
  <path d="M124.8 212.2s-.4-.5-.6-.7c-.2-.2-.6-.3-.6-.3 0-.1.3-.3.6-.3.2 0 .3.1.4.2v-.2s.2 0 .3.3c.1.3 0 .7 0 .7s0 .2-.1.3" class="st4"/>
  <path d="M124.8 212.2s-.4-.5-.6-.7c-.2-.2-.6-.3-.6-.3 0-.1.3-.3.6-.3.2 0 .3.1.4.2v-.2s.2 0 .3.3c.1.3 0 .7 0 .7s0 .2-.1.3z" class="st5"/>
  <path d="M124.8 211.9c.1-.1.3-.1.5.1.2.1.2.4.1.5-.1.1-.3.1-.5-.1-.1-.1-.2-.4-.1-.5" class="st4"/>
  <path d="M124.8 211.9c.1-.1.3-.1.5.1.2.1.2.4.1.5-.1.1-.3.1-.5-.1-.1-.1-.2-.4-.1-.5z" class="st5"/>
  <path d="M144.3 212.2s.4-.5.6-.7c.2-.2.6-.3.6-.3 0-.1-.3-.3-.6-.3-.2 0-.3.1-.4.2v-.2s-.2 0-.3.3c-.1.3 0 .7 0 .7s0 .2.1.3" class="st4"/>
  <path d="M144.3 212.2s.4-.5.6-.7c.2-.2.6-.3.6-.3 0-.1-.3-.3-.6-.3-.2 0-.3.1-.4.2v-.2s-.2 0-.3.3c-.1.3 0 .7 0 .7s0 .2.1.3z" class="st5"/>
  <path d="M144.3 211.9c-.1-.1-.3-.1-.5.1-.2.1-.2.4-.1.5.1.1.3.1.5-.1.2-.1.2-.4.1-.5" class="st4"/>
  <path d="M144.3 211.9c-.1-.1-.3-.1-.5.1-.2.1-.2.4-.1.5.1.1.3.1.5-.1.2-.1.2-.4.1-.5z" class="st5"/>
  <path d="M124 223.1h21.4v-5.6H124v5.6z" class="st4"/>
  <path d="M124 223.1h21.4v-5.6H124v5.6z" class="st9"/>
  <path d="M126.2 226.8c.1 0 .3-.1.4-.1h16c.2 0 .3 0 .4.1-.5-.2-.9-.7-.9-1.3 0-.6.4-1.1 1-1.3-.1 0-.3.1-.5.1h-16c-.2 0-.3 0-.4-.1h.1c.6.2.9.7.9 1.2 0 .7-.4 1.2-1 1.4" class="st4"/>
  <path d="M126.2 226.8c.1 0 .3-.1.4-.1h16c.2 0 .3 0 .4.1-.5-.2-.9-.7-.9-1.3 0-.6.4-1.1 1-1.3-.1 0-.3.1-.5.1h-16c-.2 0-.3 0-.4-.1h.1c.6.2.9.7.9 1.2 0 .7-.4 1.2-1 1.4z" class="st10"/>
  <path d="M126.6 226.7h16c.5 0 1 .3 1 .8 0 .4-.4.8-1 .8h-16c-.5 0-1-.3-1-.8.1-.4.5-.8 1-.8" class="st4"/>
  <path d="M126.6 226.7h16c.5 0 1 .3 1 .8 0 .4-.4.8-1 .8h-16c-.5 0-1-.3-1-.8.1-.4.5-.8 1-.8z" class="st9"/>
  <path d="M126.6 223.1h16c.5 0 1 .3 1 .6 0 .4-.4.6-1 .6h-16c-.5 0-1-.3-1-.6.1-.3.5-.6 1-.6" class="st4"/>
  <path d="M126.6 223.1h16c.5 0 1 .3 1 .6 0 .4-.4.6-1 .6h-16c-.5 0-1-.3-1-.6.1-.3.5-.6 1-.6z" class="st9"/>
  <path d="M149.6 317.5c-1.5 0-2.8-.3-3.8-.8s-2.3-.8-3.7-.8c-1.4 0-2.8.3-3.8.8s-2.3.8-3.8.8-2.8-.3-3.8-.9c-1-.5-2.2-.8-3.6-.8-1.5 0-2.7.3-3.7.8s-2.3.8-3.8.8v2.3c1.5 0 2.8-.3 3.8-.8s2.3-.8 3.7-.8c1.4 0 2.7.3 3.6.8 1 .5 2.3.9 3.8.9s2.8-.3 3.8-.8 2.3-.8 3.8-.8c1.4 0 2.7.3 3.7.8s2.3.8 3.8.8v-2.3" class="st11"/>
  <path d="M149.6 317.5c-1.5 0-2.8-.3-3.8-.8s-2.3-.8-3.7-.8c-1.4 0-2.8.3-3.8.8s-2.3.8-3.8.8-2.8-.3-3.8-.9c-1-.5-2.2-.8-3.6-.8-1.5 0-2.7.3-3.7.8s-2.3.8-3.8.8v2.3c1.5 0 2.8-.3 3.8-.8s2.3-.8 3.7-.8c1.4 0 2.7.3 3.6.8 1 .5 2.3.9 3.8.9s2.8-.3 3.8-.8 2.3-.8 3.8-.8c1.4 0 2.7.3 3.7.8s2.3.8 3.8.8v-2.3z" class="st9"/>
  <path d="M149.6 319.8c-1.5 0-2.8-.3-3.8-.8s-2.3-.8-3.7-.8c-1.4 0-2.8.3-3.8.8s-2.3.8-3.8.8-2.8-.4-3.8-.9-2.2-.8-3.6-.8c-1.5 0-2.7.3-3.7.8s-2.3.8-3.8.8v2.3c1.5 0 2.8-.3 3.8-.8s2.3-.8 3.7-.8c1.4 0 2.7.3 3.6.8 1 .5 2.3.9 3.8.9s2.8-.3 3.8-.8 2.3-.8 3.8-.8c1.4 0 2.7.3 3.7.8s2.3.8 3.8.8v-2.3" class="st12"/>
  <path d="M149.6 319.8c-1.5 0-2.8-.3-3.8-.8s-2.3-.8-3.7-.8c-1.4 0-2.8.3-3.8.8s-2.3.8-3.8.8-2.8-.4-3.8-.9-2.2-.8-3.6-.8c-1.5 0-2.7.3-3.7.8s-2.3.8-3.8.8v2.3c1.5 0 2.8-.3 3.8-.8s2.3-.8 3.7-.8c1.4 0 2.7.3 3.6.8 1 .5 2.3.9 3.8.9s2.8-.3 3.8-.8 2.3-.8 3.8-.8c1.4 0 2.7.3 3.7.8s2.3.8 3.8.8v-2.3" class="st9"/>
  <path d="M149.6 322.1c-1.5 0-2.8-.3-3.8-.8s-2.3-.8-3.7-.8c-1.4 0-2.8.3-3.8.8s-2.3.8-3.8.8-2.8-.3-3.8-.9c-1-.5-2.2-.8-3.6-.8-1.5 0-2.7.3-3.7.8s-2.3.8-3.8.8v2.3c1.5 0 2.8-.3 3.8-.8s2.3-.8 3.7-.8c1.4 0 2.7.3 3.6.8 1 .5 2.3.9 3.8.9s2.8-.3 3.8-.8 2.3-.8 3.8-.8c1.4 0 2.7.3 3.7.8s2.3.8 3.8.8v-2.3" class="st11"/>
  <path d="M149.6 322.1c-1.5 0-2.8-.3-3.8-.8s-2.3-.8-3.7-.8c-1.4 0-2.8.3-3.8.8s-2.3.8-3.8.8-2.8-.3-3.8-.9c-1-.5-2.2-.8-3.6-.8-1.5 0-2.7.3-3.7.8s-2.3.8-3.8.8v2.3c1.5 0 2.8-.3 3.8-.8s2.3-.8 3.7-.8c1.4 0 2.7.3 3.6.8 1 .5 2.3.9 3.8.9s2.8-.3 3.8-.8 2.3-.8 3.8-.8c1.4 0 2.7.3 3.7.8s2.3.8 3.8.8v-2.3" class="st9"/>
  <path d="M149.6 326.7c-1.5 0-2.8-.3-3.8-.8s-2.3-.8-3.7-.8c-1.4 0-2.8.3-3.8.8s-2.3.8-3.8.8-2.8-.3-3.8-.9c-1-.5-2.2-.8-3.6-.8-1.5 0-2.7.3-3.7.8s-2.3.8-3.8.8v-2.3c1.5 0 2.8-.3 3.8-.9 1-.5 2.3-.8 3.7-.8 1.4 0 2.7.3 3.6.8 1 .5 2.3.9 3.8.9s2.8-.3 3.8-.8 2.3-.8 3.8-.8c1.4 0 2.7.3 3.7.8s2.3.8 3.8.8v2.4" class="st12"/>
  <path d="M149.6 326.7c-1.5 0-2.8-.3-3.8-.8s-2.3-.8-3.7-.8c-1.4 0-2.8.3-3.8.8s-2.3.8-3.8.8-2.8-.3-3.8-.9c-1-.5-2.2-.8-3.6-.8-1.5 0-2.7.3-3.7.8s-2.3.8-3.8.8v-2.3c1.5 0 2.8-.3 3.8-.9 1-.5 2.3-.8 3.7-.8 1.4 0 2.7.3 3.6.8 1 .5 2.3.9 3.8.9s2.8-.3 3.8-.8 2.3-.8 3.8-.8c1.4 0 2.7.3 3.7.8s2.3.8 3.8.8v2.4" class="st9"/>
  <path d="M149.6 329c-1.5 0-2.8-.3-3.8-.8s-2.3-.8-3.7-.8c-1.4 0-2.8.3-3.8.8s-2.3.8-3.8.8-2.8-.4-3.8-.9-2.2-.8-3.6-.8c-1.5 0-2.7.3-3.7.8s-2.3.8-3.8.8v-2.3c1.5 0 2.8-.4 3.8-.9s2.3-.8 3.7-.8c1.4 0 2.7.3 3.6.8 1 .5 2.3.9 3.8.9s2.8-.3 3.8-.8 2.3-.8 3.8-.8c1.4 0 2.7.3 3.7.8s2.3.8 3.8.8v2.4" class="st11"/>
  <path d="M149.6 329c-1.5 0-2.8-.3-3.8-.8s-2.3-.8-3.7-.8c-1.4 0-2.8.3-3.8.8s-2.3.8-3.8.8-2.8-.4-3.8-.9-2.2-.8-3.6-.8c-1.5 0-2.7.3-3.7.8s-2.3.8-3.8.8v-2.3c1.5 0 2.8-.4 3.8-.9s2.3-.8 3.7-.8c1.4 0 2.7.3 3.6.8 1 .5 2.3.9 3.8.9s2.8-.3 3.8-.8 2.3-.8 3.8-.8c1.4 0 2.7.3 3.7.8s2.3.8 3.8.8v2.4z" class="st9"/>
  <path d="M126.2 308c.1.2.1.4.1.6 0 1.4-1.2 2.5-2.7 2.5h22c-1.5 0-2.7-1.1-2.7-2.5 0-.2 0-.4.1-.6-.1 0-.3.1-.4 0h-16.4" class="st4"/>
  <path d="M126.2 308c.1.2.1.4.1.6 0 1.4-1.2 2.5-2.7 2.5h22c-1.5 0-2.7-1.1-2.7-2.5 0-.2 0-.4.1-.6-.1 0-.3.1-.4 0h-16.4z" class="st10"/>
  <path d="M126.6 306.5h16c.5 0 1 .3 1 .8 0 .4-.4.8-1 .8h-16c-.5 0-1-.3-1-.8.1-.5.5-.8 1-.8" class="st4"/>
  <path d="M126.6 306.5h16c.5 0 1 .3 1 .8 0 .4-.4.8-1 .8h-16c-.5 0-1-.3-1-.8.1-.5.5-.8 1-.8z" class="st9"/>
  <path d="M123.7 316.7h22v-5.6h-22v5.6z" class="st4"/>
  <path d="M123.7 316.7h22v-5.6h-22v5.6z" class="st9"/>
  <path d="M122 286.7c-2.2 1.3-3.6 2.5-3.4 3.2.1.6.8 1 1.8 1.7 1.6 1.1 2.5 3 1.8 3.9 1.3-1 2.1-2.6 2.1-4.3-.1-1.9-.9-3.5-2.3-4.5" class="st2"/>
  <path d="M122 286.7c-2.2 1.3-3.6 2.5-3.4 3.2.1.6.8 1 1.8 1.7 1.6 1.1 2.5 3 1.8 3.9 1.3-1 2.1-2.6 2.1-4.3-.1-1.9-.9-3.5-2.3-4.5z" class="st9"/>
  <path d="M126.8 305.6h15.6v-76.4h-15.6v76.4z" class="st12"/>
  <path d="M138 229.2v76.3m1.7-76.3v76.3m-12.9.1h15.6v-76.4h-15.6v76.4z" class="st9"/>
  <path d="M158.4 257.7c-3.4-1.4-9.2-2.4-15.8-2.7-2.3 0-4.8.2-7.5.7-9.3 1.6-16.4 5.3-15.9 8.3v.3s-3.5-7.9-3.6-8.2c-.6-3.4 7.3-7.5 17.6-9.2 3.2-.5 6.4-.8 9.2-.7 6.6 0 12.4.9 15.9 2.1l.1 9.4" class="st2"/>
  <path d="M158.4 257.7c-3.4-1.4-9.2-2.4-15.8-2.7-2.3 0-4.8.2-7.5.7-9.3 1.6-16.4 5.3-15.9 8.3v.3s-3.5-7.9-3.6-8.2c-.6-3.4 7.3-7.5 17.6-9.2 3.2-.5 6.4-.8 9.2-.7 6.6 0 12.4.9 15.9 2.1l.1 9.4" class="st10"/>
  <path d="M126.8 267.3c-4.3-.3-7.3-1.5-7.6-3.3-.3-1.4 1.2-3 3.8-4.5 1.2.1 2.5.3 3.8.3v7.5" class="st2"/>
  <path d="M126.8 267.3c-4.3-.3-7.3-1.5-7.6-3.3-.3-1.4 1.2-3 3.8-4.5 1.2.1 2.5.3 3.8.3v7.5" class="st9"/>
  <path d="M142.5 261.5c2.7.4 4.7 1.1 5.7 1.9l.1.2c.5 1-1.9 3.1-5.9 5.4l.1-7.5" class="st2"/>
  <path d="M142.5 261.5c2.7.4 4.7 1.1 5.7 1.9l.1.2c.5 1-1.9 3.1-5.9 5.4l.1-7.5" class="st9"/>
  <path d="M117.1 282.1c-.4-1.2 3.8-3.7 9.8-5.9 2.7-1 5-2 7.8-3.2 8.3-3.7 14.4-7.9 13.7-9.4l-.1-.2c.4.4 1.1 7.9 1.1 7.9.8 1.4-4.8 5.5-12.5 9.2-2.4 1.2-7.6 3.1-10 3.9-4.4 1.5-8.7 4.4-8.3 5.4l-1.5-7.7" class="st2"/>
  <path d="M117.1 282.1c-.4-1.2 3.8-3.7 9.8-5.9 2.7-1 5-2 7.8-3.2 8.3-3.7 14.4-7.9 13.7-9.4l-.1-.2c.4.4 1.1 7.9 1.1 7.9.8 1.4-4.8 5.5-12.5 9.2-2.4 1.2-7.6 3.1-10 3.9-4.4 1.5-8.7 4.4-8.3 5.4l-1.5-7.7z" class="st10"/>
  <path d="M125.8 254.1c1.9-.7 3.2-1.5 2.5-3-.4-1-1.4-1.1-2.8-.6l-2.6.9 2.3 5.8c.3-.1.5-.2.8-.3.3-.1.5-.2.8-.2l-1-2.6zm-1.2-2.8l.7-.2c.5-.2 1.2.1 1.4.8.2.5.2 1.1-.5 1.5-.2.1-.4.2-.7.3l-.9-2.4m7.3-2.5c-.3.1-.5.2-.8.2-.3.1-.6.1-.8.1l1.4 6 4.2-.8c-.1-.1-.1-.2-.1-.4v-.4c-.7.2-1.5.4-2.5.6l-1.4-5.3m8.4 5.2c.8-2.2 1.8-4.3 2.7-6.4-.3.1-.7.1-1 .1-.5 1.5-1.1 3.1-1.8 4.6-.8-1.5-1.7-2.9-2.3-4.3-.3 0-.7.1-1 .1h-1c1.2 2 2.4 4 3.5 6 .2 0 .3-.1.5-.1h.4m8.8-4.6c.1-.3.3-.6.5-.9-.2-.2-.9-.5-1.7-.6-1.7-.2-2.7.6-2.8 1.6-.2 2.2 3.2 2 3 3.4-.1.6-.7.9-1.4.8-.8-.1-1.4-.5-1.4-1.1h-.2c-.1.4-.3.8-.5 1.1.5.3 1.2.5 1.8.6 1.8.2 3.1-.5 3.2-1.7.2-2.1-3.2-2.2-3.1-3.4.1-.5.4-.8 1.3-.8.6.1 1 .4 1.2.9l.1.1" class="st4"/>
  <path d="M277.9 211.6s-.7.7-1.2.9c-.5.1-1.2-.5-1.2-.5s-.5.5-1 .6c-.6.1-1.4-.6-1.4-.6s-.5.8-1 .9c-.5.2-1.1-.2-1.1-.2s-.2.4-.6.6c-.2.1-.5-.1-.5-.1l-.6-.4-.7-.7-.6-.2s-.3-.9-.3-1l-.1-.5c-.1-.6.8-1.3 2.2-1.7.8-.2 1.5-.2 2 0 .5-.5 1.7-.8 3.1-.8 1.2 0 2.3.3 2.9.7.6-.4 1.7-.7 2.9-.7 1.4 0 2.5.3 3.1.8.5-.2 1.2-.2 2 0 1.4.3 2.3 1 2.2 1.7l-.1.5c0 .2-.3 1-.3 1l-.6.2-.7.7-.6.4s-.3.1-.5.1c-.4-.2-.6-.6-.6-.6s-.6.4-1.1.2c-.5-.2-1-.9-1-.9s-.8.8-1.4.6c-.6-.1-1-.6-1-.6s-.7.6-1.2.5c-.3-.2-1-.9-1-.9" class="st2"/>
  <path fill="none" stroke="#000" stroke-width=".259" d="M277.9 211.6s-.7.7-1.2.9c-.5.1-1.2-.5-1.2-.5s-.5.5-1 .6c-.6.1-1.4-.6-1.4-.6s-.5.8-1 .9c-.5.2-1.1-.2-1.1-.2s-.2.4-.6.6c-.2.1-.5-.1-.5-.1l-.6-.4-.7-.7-.6-.2s-.3-.9-.3-1l-.1-.5c-.1-.6.8-1.3 2.2-1.7.8-.2 1.5-.2 2 0 .5-.5 1.7-.8 3.1-.8 1.2 0 2.3.3 2.9.7.6-.4 1.7-.7 2.9-.7 1.4 0 2.5.3 3.1.8.5-.2 1.2-.2 2 0 1.4.3 2.3 1 2.2 1.7l-.1.5c0 .2-.3 1-.3 1l-.6.2-.7.7-.6.4s-.3.1-.5.1c-.4-.2-.6-.6-.6-.6s-.6.4-1.1.2c-.5-.2-1-.9-1-.9s-.8.8-1.4.6c-.6-.1-1-.6-1-.6s-.7.6-1.2.5c-.3-.2-1-.9-1-.9z"/>
  <path d="M276.5 207.6c0-1 .6-1.9 1.3-1.9s1.3.8 1.3 1.9c0 1-.6 1.9-1.3 1.9-.7-.1-1.3-.9-1.3-1.9" class="st4"/>
  <path d="M276.5 207.6c0-1 .6-1.9 1.3-1.9s1.3.8 1.3 1.9c0 1-.6 1.9-1.3 1.9-.7-.1-1.3-.9-1.3-1.9z" class="st5"/>
  <path d="M277.2 207.6c0-1 .3-1.7.6-1.7s.6.8.6 1.7c0 1-.3 1.7-.6 1.7s-.6-.8-.6-1.7" class="st4"/>
  <path d="M277.2 207.6c0-1 .3-1.7.6-1.7s.6.8.6 1.7c0 1-.3 1.7-.6 1.7s-.6-.8-.6-1.7z" class="st5"/>
  <path d="M271 215.3c-.1-.4-.3-.7-.6-1 1.9-.5 4.5-.9 7.4-.9 2.9 0 5.5.4 7.4.9l-.5.9c-.2.3-.4.8-.4.8-1.7-.5-3.9-.8-6.5-.8-2.7 0-5.2.3-6.6.8.1-.1 0-.4-.2-.7" class="st4"/>
  <path d="M271 215.3c-.1-.4-.3-.7-.6-1 1.9-.5 4.5-.9 7.4-.9 2.9 0 5.5.4 7.4.9l-.5.9c-.2.3-.4.8-.4.8-1.7-.5-3.9-.8-6.5-.8-2.7 0-5.2.3-6.6.8.1-.1 0-.4-.2-.7" class="st5"/>
  <path d="M277.8 217.7c2.3 0 4.9-.4 5.9-.6.6-.2 1-.5.9-.8 0-.2-.2-.3-.4-.4-1.4-.4-3.9-.8-6.4-.8-2.5 0-5.1.3-6.5.8-.2.1-.3.2-.4.4-.1.3.3.6.9.8 1.1.2 3.7.6 6 .6" class="st4"/>
  <path d="M277.8 217.7c2.3 0 4.9-.4 5.9-.6.6-.2 1-.5.9-.8 0-.2-.2-.3-.4-.4-1.4-.4-3.9-.8-6.4-.8-2.5 0-5.1.3-6.5.8-.2.1-.3.2-.4.4-.1.3.3.6.9.8 1.1.2 3.7.6 6 .6z" class="st5"/>
  <path d="M283.5 208.4c0-.2.2-.4.4-.4s.4.2.4.4-.2.4-.4.4-.4-.2-.4-.4" class="st7"/>
  <path d="M283.5 208.4c0-.2.2-.4.4-.4s.4.2.4.4-.2.4-.4.4-.4-.2-.4-.4zm-.2-1.4c0-.2.2-.4.4-.4s.4.2.4.4-.2.4-.4.4-.4-.2-.4-.4zm-1.1-.9c0-.2.2-.4.4-.4s.4.2.4.4-.2.4-.4.4-.4-.2-.4-.4zm-1.4-.5c0-.2.2-.4.4-.4s.4.2.4.4-.2.4-.4.4-.4-.2-.4-.4zm-1.4.1c0-.2.2-.4.4-.4s.4.2.4.4-.2.4-.4.4-.4-.2-.4-.4z" class="st14"/>
  <path d="M287.8 211.2c.1-.3.2-.7.2-1 0-1.5-1.2-2.8-2.7-2.8-.5 0-.9.1-1.3.4" class="st15"/>
  <path d="M283 209.2c.1-.2.2-.6.2-.8 0-1.1-1.1-2-2.5-2-.6 0-1.1.2-1.6.4" class="st5"/>
  <path d="M288.2 209.9c0-.2.2-.4.4-.4s.4.2.4.4-.2.4-.4.4-.4-.1-.4-.4zm-.2-1.5c0-.2.2-.4.4-.4s.4.2.4.4-.2.4-.4.4-.4-.2-.4-.4zm-1-1.1c0-.2.2-.4.4-.4s.4.2.4.4-.2.4-.4.4-.4-.2-.4-.4zm-1.3-.7c0-.2.2-.4.4-.4s.4.2.4.4-.2.4-.4.4c-.2.1-.4-.1-.4-.4zm-1.4.1c0-.2.2-.4.4-.4s.4.2.4.4-.2.4-.4.4-.4-.2-.4-.4z" class="st14"/>
  <path d="M285.3 213.2l-.6-.5s-.5.3-1.2.2c-.7-.1-.9-.9-.9-.9s-.8.6-1.4.6c-.6-.1-1-.6-1-.6s-.7.5-1.3.4c-.6-.1-1.2-.8-1.2-.8s-.6.8-1.2.8-1.1-.5-1.1-.5-.3.6-1 .7c-.8.1-1.4-.6-1.4-.6s-.4.7-.9.9c-.5.2-1.2-.3-1.2-.3s-.1.3-.2.4c-.1.2-.3.2-.3.2l.2.5c1.9-.5 4.4-.9 7.2-.9 2.9 0 5.4.3 7.3.9l.2-.5" class="st4"/>
  <path d="M285.3 213.2l-.6-.5s-.5.3-1.2.2c-.7-.1-.9-.9-.9-.9s-.8.6-1.4.6c-.6-.1-1-.6-1-.6s-.7.5-1.3.4c-.6-.1-1.2-.8-1.2-.8s-.6.8-1.2.8-1.1-.5-1.1-.5-.3.6-1 .7c-.8.1-1.4-.6-1.4-.6s-.4.7-.9.9c-.5.2-1.2-.3-1.2-.3s-.1.3-.2.4c-.1.2-.3.2-.3.2l.2.5c1.9-.5 4.4-.9 7.2-.9 2.9 0 5.4.3 7.3.9l.2-.5z" class="st5"/>
  <path d="M271.3 208.4c0-.2.2-.4.4-.4s.4.2.4.4-.2.4-.4.4-.4-.2-.4-.4" class="st7"/>
  <path d="M271.3 208.4c0-.2.2-.4.4-.4s.4.2.4.4-.2.4-.4.4-.4-.2-.4-.4zm.2-1.4c0-.2.2-.4.4-.4s.4.2.4.4-.2.4-.4.4-.4-.2-.4-.4zm1.1-.9c0-.2.2-.4.4-.4s.4.2.4.4-.2.4-.4.4-.4-.2-.4-.4zm1.3-.5c0-.2.2-.4.4-.4s.4.2.4.4-.2.4-.4.4-.4-.2-.4-.4zm1.4.1c0-.2.2-.4.4-.4s.4.2.4.4-.2.4-.4.4-.4-.2-.4-.4z" class="st14"/>
  <path d="M267.8 211.2c-.1-.3-.2-.7-.2-1 0-1.5 1.2-2.8 2.7-2.8.5 0 .9.1 1.3.4" class="st15"/>
  <path d="M272.7 209.2c-.1-.2-.3-.5-.3-.8 0-1.1 1.1-2 2.5-2 .6 0 1.1.1 1.6.4" class="st5"/>
  <path d="M266.6 209.9c0-.2.2-.4.4-.4s.4.2.4.4-.2.4-.4.4-.4-.1-.4-.4zm.2-1.5c0-.2.2-.4.4-.4s.4.2.4.4-.2.4-.4.4c-.3 0-.4-.2-.4-.4zm.9-1.1c0-.2.2-.4.4-.4s.4.2.4.4-.2.4-.4.4-.4-.2-.4-.4zm1.3-.7c0-.2.2-.4.4-.4s.4.2.4.4-.2.4-.4.4c-.2.1-.4-.1-.4-.4zm1.4.1c0-.2.2-.4.4-.4s.4.2.4.4-.2.4-.4.4-.4-.2-.4-.4z" class="st14"/>
  <path d="M277.9 210.7l.3.1c0 .1-.1.2-.1.4 0 .6.5 1 1.1 1 .5 0 .9-.3 1-.7l.1-.4v.4c.1.5.5.9 1.1.9.6 0 1.1-.5 1.1-1v-.1l.3-.3.2.4c-.1.1-.1.3-.1.4 0 .5.5 1 1 1 .4 0 .7-.2.9-.4l.2-.3v.3c0 .3.1.6.5.7 0 0 .4 0 .9-.4s.8-.7.8-.7v.4s-.5.8-.9 1.1c-.2.1-.6.3-.9.2-.3 0-.5-.3-.6-.6-.2.1-.5.2-.8.2-.6 0-1.1-.3-1.4-.8-.3.3-.7.5-1.1.5-.5 0-.9-.2-1.2-.6-.3.3-.7.4-1.1.4-.5 0-1-.3-1.3-.7-.3.4-.7.7-1.3.7-.4 0-.8-.2-1-.4-.3.4-.7.6-1.2.6s-.8-.2-1.1-.5c-.2.5-.8.8-1.4.8-.3 0-.5-.1-.8-.2-.1.3-.3.5-.6.6-.3.1-.7-.1-.9-.2-.5-.3-1-1.1-1-1.1l.1-.4s.3.3.8.7c.5.4.9.4.9.4.3-.1.5-.4.5-.7v-.4l.2.3c.2.3.5.4.9.4.6 0 1-.4 1-1 0-.2 0-.3-.1-.4l.2-.4.3.3v.1c0 .6.5 1 1.1 1 .5 0 1-.4 1.1-.9v-.4l.1.4c.1.4.5.7 1 .7.6 0 1.1-.5 1.1-1v-.4h.1" class="st4"/>
  <path d="M277.9 210.7l.3.1c0 .1-.1.2-.1.4 0 .6.5 1 1.1 1 .5 0 .9-.3 1-.7l.1-.4v.4c.1.5.5.9 1.1.9.6 0 1.1-.5 1.1-1v-.1l.3-.3.2.4c-.1.1-.1.3-.1.4 0 .5.5 1 1 1 .4 0 .7-.2.9-.4l.2-.3v.3c0 .3.1.6.5.7 0 0 .4 0 .9-.4s.8-.7.8-.7v.4s-.5.8-.9 1.1c-.2.1-.6.3-.9.2-.3 0-.5-.3-.6-.6-.2.1-.5.2-.8.2-.6 0-1.1-.3-1.4-.8-.3.3-.7.5-1.1.5-.5 0-.9-.2-1.2-.6-.3.3-.7.4-1.1.4-.5 0-1-.3-1.3-.7-.3.4-.7.7-1.3.7-.4 0-.8-.2-1-.4-.3.4-.7.6-1.2.6s-.8-.2-1.1-.5c-.2.5-.8.8-1.4.8-.3 0-.5-.1-.8-.2-.1.3-.3.5-.6.6-.3.1-.7-.1-.9-.2-.5-.3-1-1.1-1-1.1l.1-.4s.3.3.8.7c.5.4.9.4.9.4.3-.1.5-.4.5-.7v-.4l.2.3c.2.3.5.4.9.4.6 0 1-.4 1-1 0-.2 0-.3-.1-.4l.2-.4.3.3v.1c0 .6.5 1 1.1 1 .5 0 1-.4 1.1-.9v-.4l.1.4c.1.4.5.7 1 .7.6 0 1.1-.5 1.1-1v-.4h.1z" class="st5"/>
  <path d="M277.8 213.3c-2.9 0-5.5.3-7.4.9-.1 0-.3-.1-.3-.2s0-.3.2-.3c1.9-.6 4.5-.9 7.5-.9s5.6.4 7.5.9c.1 0 .2.2.2.3 0 .1-.2.2-.3.2-1.9-.5-4.5-.9-7.4-.9" class="st4"/>
  <path d="M277.8 213.3c-2.9 0-5.5.3-7.4.9-.1 0-.3-.1-.3-.2s0-.3.2-.3c1.9-.6 4.5-.9 7.5-.9s5.6.4 7.5.9c.1 0 .2.2.2.3 0 .1-.2.2-.3.2-1.9-.5-4.5-.9-7.4-.9z" class="st5"/>
  <path d="M275 214.4c0-.2.2-.4.4-.4s.4.2.4.4-.2.4-.4.4-.4-.2-.4-.4" class="st7"/>
  <path d="M275 214.4c0-.2.2-.4.4-.4s.4.2.4.4-.2.4-.4.4-.4-.2-.4-.4z" class="st5"/>
  <path d="M277.9 214.5h-.9c-.2 0-.3-.1-.3-.3 0-.2.1-.3.3-.3h1.9c.2 0 .3.1.3.3 0 .2-.1.3-.3.3h-1" class="st2"/>
  <path d="M277.9 214.5h-.9c-.2 0-.3-.1-.3-.3 0-.2.1-.3.3-.3h1.9c.2 0 .3.1.3.3 0 .2-.1.3-.3.3h-1" class="st5"/>
  <path d="M273.2 214.9l-.7.1c-.2 0-.3-.1-.4-.2 0-.2.1-.3.2-.3l.7-.1.7-.1c.2 0 .3.1.4.2 0 .2-.1.3-.3.3l-.6.1" class="st8"/>
  <path d="M273.2 214.9l-.7.1c-.2 0-.3-.1-.4-.2 0-.2.1-.3.2-.3l.7-.1.7-.1c.2 0 .3.1.4.2 0 .2-.1.3-.3.3l-.6.1" class="st5"/>
  <path d="M270.5 215.3l.3-.5.6.1-.4.5-.5-.1" class="st2"/>
  <path d="M270.5 215.3l.3-.5.6.1-.4.5-.5-.1" class="st5"/>
  <path d="M279.8 214.4c0-.2.2-.4.4-.4s.4.2.4.4-.2.4-.4.4-.4-.2-.4-.4" class="st7"/>
  <path d="M279.8 214.4c0-.2.2-.4.4-.4s.4.2.4.4-.2.4-.4.4-.4-.2-.4-.4z" class="st5"/>
  <path d="M282.5 214.9l.7.1c.2 0 .3-.1.4-.2 0-.2-.1-.3-.2-.3l-.7-.1-.7-.1c-.2 0-.3.1-.4.2 0 .2.1.3.3.3l.6.1" class="st8"/>
  <path d="M282.5 214.9l.7.1c.2 0 .3-.1.4-.2 0-.2-.1-.3-.2-.3l-.7-.1-.7-.1c-.2 0-.3.1-.4.2 0 .2.1.3.3.3l.6.1" class="st5"/>
  <path d="M285.1 215.4l-.2-.5-.6.1.3.6.5-.2" class="st2"/>
  <path d="M285.1 215.4l-.2-.5-.6.1.3.6.5-.2" class="st5"/>
  <path d="M277.8 217.1c-2.3 0-4.4-.2-6.1-.6 1.6-.4 3.7-.7 6.1-.7 2.3 0 4.5.3 6.1.7-1.6.4-3.7.6-6.1.6" class="st2"/>
  <path d="M277.8 217.1c-2.3 0-4.4-.2-6.1-.6 1.6-.4 3.7-.7 6.1-.7 2.3 0 4.5.3 6.1.7-1.6.4-3.7.6-6.1.6z" class="st3"/>
  <path d="M285.2 212.1c.1-.2 0-.4-.1-.4s-.3.1-.3.3c-.1.2 0 .4.1.4l.3-.3" class="st4"/>
  <path d="M285.2 212.1c.1-.2 0-.4-.1-.4s-.3.1-.3.3c-.1.2 0 .4.1.4l.3-.3z" class="st5"/>
  <path d="M280.6 211.1c0-.2-.1-.4-.2-.4s-.3.1-.3.3c0 .2.1.4.2.4.1.1.2-.1.3-.3" class="st4"/>
  <path d="M280.6 211.1c0-.2-.1-.4-.2-.4s-.3.1-.3.3c0 .2.1.4.2.4.1.1.2-.1.3-.3z" class="st5"/>
  <path d="M275.2 211.1c0-.2.1-.4.2-.4s.3.1.3.3c0 .2-.1.4-.2.4-.2.1-.3-.1-.3-.3" class="st4"/>
  <path d="M275.2 211.1c0-.2.1-.4.2-.4s.3.1.3.3c0 .2-.1.4-.2.4-.2.1-.3-.1-.3-.3z" class="st5"/>
  <path d="M270.5 212.1c-.1-.2 0-.4.1-.4s.3.1.4.3c.1.2 0 .4-.1.4-.2-.1-.3-.2-.4-.3" class="st4"/>
  <path d="M270.5 212.1c-.1-.2 0-.4.1-.4s.3.1.4.3c.1.2 0 .4-.1.4-.2-.1-.3-.2-.4-.3z" class="st5"/>
  <path d="M277.8 208.5l-.8.5.6 1.3.2.1.2-.1.6-1.3-.8-.5" class="st4"/>
  <path d="M277.8 208.5l-.8.5.6 1.3.2.1.2-.1.6-1.3-.8-.5" class="st5"/>
  <path d="M276 210.5l.4.5 1.3-.4.1-.2-.1-.2-1.3-.4-.4.7" class="st4"/>
  <path d="M276 210.5l.4.5 1.3-.4.1-.2-.1-.2-1.3-.4-.4.7" class="st5"/>
  <path d="M279.7 210.5l-.4.5-1.3-.4-.1-.2.1-.2 1.3-.4.4.7" class="st4"/>
  <path d="M279.7 210.5l-.4.5-1.3-.4-.1-.2.1-.2 1.3-.4.4.7" class="st5"/>
  <path d="M272.5 209.1l-.6.6.8 1.1.2.1.2-.2.3-1.3-.9-.3" class="st4"/>
  <path d="M272.5 209.1l-.6.6.8 1.1.2.1.2-.2.3-1.3-.9-.3" class="st5"/>
  <path d="M271.1 211.2l.5.5 1.2-.6.1-.2-.2-.2-1.3-.1-.3.6" class="st4"/>
  <path d="M271.1 211.2l.5.5 1.2-.6.1-.2-.2-.2-1.3-.1-.3.6" class="st5"/>
  <path d="M274.7 210.5l-.2.6-1.3-.1-.2-.2.1-.2 1.2-.6.4.5" class="st4"/>
  <path d="M274.7 210.5l-.2.6-1.3-.1-.2-.2.1-.2 1.2-.6.4.5" class="st5"/>
  <path d="M269.8 211.4l-.1.6-1.3.1-.2-.1v-.2l1-.8.6.4" class="st4"/>
  <path d="M269.8 211.4l-.1.6-1.3.1-.2-.1v-.2l1-.8.6.4" class="st5"/>
  <path d="M272.4 210.9c0-.2.2-.4.5-.4s.5.2.5.4c0 .3-.2.5-.5.4-.3 0-.5-.2-.5-.4" class="st4"/>
  <path d="M272.4 210.9c0-.2.2-.4.5-.4s.5.2.5.4c0 .3-.2.5-.5.4-.3 0-.5-.2-.5-.4z" class="st5"/>
  <path d="M283.2 209.1l.6.6-.8 1.1-.2.1-.2-.2-.3-1.3.9-.3" class="st4"/>
  <path d="M283.2 209.1l.6.6-.8 1.1-.2.1-.2-.2-.3-1.3.9-.3" class="st5"/>
  <path d="M284.6 211.2l-.5.5-1.2-.6-.1-.2.2-.2 1.3-.1.3.6" class="st4"/>
  <path d="M284.6 211.2l-.5.5-1.2-.6-.1-.2.2-.2 1.3-.1.3.6" class="st5"/>
  <path d="M281 210.5l.2.6 1.3-.1.2-.2-.1-.2-1.2-.6-.4.5" class="st4"/>
  <path d="M281 210.5l.2.6 1.3-.1.2-.2-.1-.2-1.2-.6-.4.5" class="st5"/>
  <path d="M285.7 211.4l.1.6 1.3.1.2-.1v-.2l-1-.8-.6.4" class="st4"/>
  <path d="M285.7 211.4l.1.6 1.3.1.2-.1v-.2l-1-.8-.6.4" class="st5"/>
  <path d="M277.4 210.4c0-.3.2-.4.5-.4s.5.2.5.4-.2.4-.5.4c-.3.1-.5-.1-.5-.4" class="st4"/>
  <path d="M277.4 210.4c0-.3.2-.4.5-.4s.5.2.5.4-.2.4-.5.4c-.3.1-.5-.1-.5-.4z" class="st5"/>
  <path d="M282.3 210.9c0-.2.2-.4.5-.4s.5.2.5.4-.2.4-.5.4c-.2 0-.4-.2-.5-.4" class="st4"/>
  <path d="M282.3 210.9c0-.2.2-.4.5-.4s.5.2.5.4-.2.4-.5.4c-.2 0-.4-.2-.5-.4z" class="st5"/>
  <path d="M277 205.4c0-.5.4-.8.9-.8s.9.4.9.8c0 .5-.4.8-.9.8s-.9-.3-.9-.8" class="st4"/>
  <path d="M278.5 205.1v.6h-1.4v-.6h.4v-1.3h-.5v-.6h.6v-.5h.6v.5h.6v.6h-.6v1.3h.3" class="st4"/>
  <path d="M278.5 205.1v.6h-1.4v-.6h.4v-1.3h-.5v-.6h.6v-.5h.6v.5h.6v.6h-.6v1.3h.3z" class="st6"/>
  <path d="M279.1 205.1v.6h-2.4v-.6h.9v-1.3h-.6v-.6h.6v-.5h.6v.5h.6v.6h-.6v1.3h.9" class="st4"/>
  <path d="M278.1 204.6c.4.1.6.4.6.8 0 .5-.4.8-.9.8s-.9-.4-.9-.8.3-.7.7-.8" class="st5"/>
  <path d="M268 212.2s-.4-.5-.6-.7c-.2-.2-.6-.3-.6-.3 0-.1.3-.3.6-.3.2 0 .3.1.4.2v-.2s.2 0 .3.3c.1.3 0 .7 0 .7s0 .2-.1.3" class="st4"/>
  <path d="M268 212.2s-.4-.5-.6-.7c-.2-.2-.6-.3-.6-.3 0-.1.3-.3.6-.3.2 0 .3.1.4.2v-.2s.2 0 .3.3c.1.3 0 .7 0 .7s0 .2-.1.3z" class="st5"/>
  <path d="M268 211.9c.1-.1.3-.1.5.1.2.1.2.4.1.5-.1.1-.3.1-.5-.1-.1-.1-.2-.4-.1-.5" class="st4"/>
  <path d="M268 211.9c.1-.1.3-.1.5.1.2.1.2.4.1.5-.1.1-.3.1-.5-.1-.1-.1-.2-.4-.1-.5z" class="st5"/>
  <path d="M287.5 212.2s.4-.5.6-.7c.2-.2.6-.3.6-.3 0-.1-.3-.3-.6-.3-.2 0-.3.1-.4.2v-.2s-.2 0-.3.3c-.1.3 0 .7 0 .7s0 .2.1.3" class="st4"/>
  <path d="M287.5 212.2s.4-.5.6-.7c.2-.2.6-.3.6-.3 0-.1-.3-.3-.6-.3-.2 0-.3.1-.4.2v-.2s-.2 0-.3.3c-.1.3 0 .7 0 .7s0 .2.1.3z" class="st5"/>
  <path d="M287.5 211.9c-.1-.1-.3-.1-.5.1-.2.1-.2.4-.1.5.1.1.3.1.5-.1.2-.1.2-.4.1-.5" class="st4"/>
  <path d="M287.5 211.9c-.1-.1-.3-.1-.5.1-.2.1-.2.4-.1.5.1.1.3.1.5-.1.2-.1.2-.4.1-.5z" class="st5"/>
  <path d="M267.2 223.1h21.4v-5.6h-21.4v5.6z" class="st4"/>
  <path d="M267.2 223.1h21.4v-5.6h-21.4v5.6z" class="st9"/>
  <path d="M286.3 226.8c-.1 0-.3-.1-.4-.1h-16c-.2 0-.3 0-.4.1.5-.2.9-.7.9-1.3 0-.6-.4-1.1-1-1.3.1 0 .3.1.5.1h16c.2 0 .3 0 .4-.1h-.1c-.6.2-.9.7-.9 1.2.1.7.4 1.2 1 1.4" class="st4"/>
  <path d="M286.3 226.8c-.1 0-.3-.1-.4-.1h-16c-.2 0-.3 0-.4.1.5-.2.9-.7.9-1.3 0-.6-.4-1.1-1-1.3.1 0 .3.1.5.1h16c.2 0 .3 0 .4-.1h-.1c-.6.2-.9.7-.9 1.2.1.7.4 1.2 1 1.4z" class="st10"/>
  <path d="M269.9 226.7h16c.5 0 1 .3 1 .8 0 .4-.4.8-1 .8h-16c-.5 0-1-.3-1-.8 0-.4.5-.8 1-.8" class="st4"/>
  <path d="M269.9 226.7h16c.5 0 1 .3 1 .8 0 .4-.4.8-1 .8h-16c-.5 0-1-.3-1-.8 0-.4.5-.8 1-.8z" class="st9"/>
  <path d="M269.9 223.1h16c.5 0 1 .3 1 .6 0 .4-.4.6-1 .6h-16c-.5 0-1-.3-1-.6s.4-.6 1-.6" class="st4"/>
  <path d="M269.9 223.1h16c.5 0 1 .3 1 .6 0 .4-.4.6-1 .6h-16c-.5 0-1-.3-1-.6s.4-.6 1-.6z" class="st9"/>
  <path d="M262.9 317.5c1.5 0 2.8-.3 3.8-.8s2.3-.8 3.7-.8c1.4 0 2.8.3 3.8.8s2.3.8 3.8.8 2.8-.3 3.8-.9c1-.5 2.2-.8 3.6-.8 1.5 0 2.7.3 3.7.8s2.3.8 3.8.8v2.3c-1.5 0-2.8-.3-3.8-.8s-2.3-.8-3.7-.8c-1.4 0-2.7.3-3.6.8-1 .5-2.3.9-3.8.9s-2.8-.3-3.8-.8-2.3-.8-3.8-.8c-1.4 0-2.7.3-3.7.8s-2.3.8-3.8.8v-2.3" class="st11"/>
  <path d="M262.9 317.5c1.5 0 2.8-.3 3.8-.8s2.3-.8 3.7-.8c1.4 0 2.8.3 3.8.8s2.3.8 3.8.8 2.8-.3 3.8-.9c1-.5 2.2-.8 3.6-.8 1.5 0 2.7.3 3.7.8s2.3.8 3.8.8v2.3c-1.5 0-2.8-.3-3.8-.8s-2.3-.8-3.7-.8c-1.4 0-2.7.3-3.6.8-1 .5-2.3.9-3.8.9s-2.8-.3-3.8-.8-2.3-.8-3.8-.8c-1.4 0-2.7.3-3.7.8s-2.3.8-3.8.8v-2.3z" class="st9"/>
  <path d="M262.9 319.8c1.5 0 2.8-.3 3.8-.8s2.3-.8 3.7-.8c1.4 0 2.8.3 3.8.8s2.3.8 3.8.8 2.8-.4 3.8-.9 2.2-.8 3.6-.8c1.5 0 2.7.3 3.7.8s2.3.8 3.8.8v2.3c-1.5 0-2.8-.3-3.8-.8s-2.3-.8-3.7-.8c-1.4 0-2.7.3-3.6.8-1 .5-2.3.9-3.8.9s-2.8-.3-3.8-.8-2.3-.8-3.8-.8c-1.4 0-2.7.3-3.7.8s-2.3.8-3.8.8v-2.3" class="st12"/>
  <path d="M262.9 319.8c1.5 0 2.8-.3 3.8-.8s2.3-.8 3.7-.8c1.4 0 2.8.3 3.8.8s2.3.8 3.8.8 2.8-.4 3.8-.9 2.2-.8 3.6-.8c1.5 0 2.7.3 3.7.8s2.3.8 3.8.8v2.3c-1.5 0-2.8-.3-3.8-.8s-2.3-.8-3.7-.8c-1.4 0-2.7.3-3.6.8-1 .5-2.3.9-3.8.9s-2.8-.3-3.8-.8-2.3-.8-3.8-.8c-1.4 0-2.7.3-3.7.8s-2.3.8-3.8.8v-2.3" class="st9"/>
  <path d="M262.9 322.1c1.5 0 2.8-.3 3.8-.8s2.3-.8 3.7-.8c1.4 0 2.8.3 3.8.8s2.3.8 3.8.8 2.8-.3 3.8-.9c1-.5 2.2-.8 3.6-.8 1.5 0 2.7.3 3.7.8s2.3.8 3.8.8v2.3c-1.5 0-2.8-.3-3.8-.8s-2.3-.8-3.7-.8c-1.4 0-2.7.3-3.6.8-1 .5-2.3.9-3.8.9s-2.8-.3-3.8-.8-2.3-.8-3.8-.8c-1.4 0-2.7.3-3.7.8s-2.3.8-3.8.8v-2.3" class="st11"/>
  <path d="M262.9 322.1c1.5 0 2.8-.3 3.8-.8s2.3-.8 3.7-.8c1.4 0 2.8.3 3.8.8s2.3.8 3.8.8 2.8-.3 3.8-.9c1-.5 2.2-.8 3.6-.8 1.5 0 2.7.3 3.7.8s2.3.8 3.8.8v2.3c-1.5 0-2.8-.3-3.8-.8s-2.3-.8-3.7-.8c-1.4 0-2.7.3-3.6.8-1 .5-2.3.9-3.8.9s-2.8-.3-3.8-.8-2.3-.8-3.8-.8c-1.4 0-2.7.3-3.7.8s-2.3.8-3.8.8v-2.3" class="st9"/>
  <path d="M262.9 326.7c1.5 0 2.8-.3 3.8-.8s2.3-.8 3.7-.8c1.4 0 2.8.3 3.8.8s2.3.8 3.8.8 2.8-.3 3.8-.9c1-.5 2.2-.8 3.6-.8 1.5 0 2.7.3 3.7.8s2.3.8 3.8.8v-2.3c-1.5 0-2.8-.3-3.8-.9-1-.5-2.3-.8-3.7-.8-1.4 0-2.7.3-3.6.8-1 .5-2.3.9-3.8.9s-2.8-.3-3.8-.8-2.3-.8-3.8-.8c-1.4 0-2.7.3-3.7.8s-2.3.8-3.8.8v2.4" class="st12"/>
  <path d="M262.9 326.7c1.5 0 2.8-.3 3.8-.8s2.3-.8 3.7-.8c1.4 0 2.8.3 3.8.8s2.3.8 3.8.8 2.8-.3 3.8-.9c1-.5 2.2-.8 3.6-.8 1.5 0 2.7.3 3.7.8s2.3.8 3.8.8v-2.3c-1.5 0-2.8-.3-3.8-.9-1-.5-2.3-.8-3.7-.8-1.4 0-2.7.3-3.6.8-1 .5-2.3.9-3.8.9s-2.8-.3-3.8-.8-2.3-.8-3.8-.8c-1.4 0-2.7.3-3.7.8s-2.3.8-3.8.8v2.4" class="st9"/>
  <path d="M262.9 329c1.5 0 2.8-.3 3.8-.8s2.3-.8 3.7-.8c1.4 0 2.8.3 3.8.8s2.3.8 3.8.8 2.8-.4 3.8-.9 2.2-.8 3.6-.8c1.5 0 2.7.3 3.7.8s2.3.8 3.8.8v-2.3c-1.5 0-2.8-.4-3.8-.9s-2.3-.8-3.7-.8c-1.4 0-2.7.3-3.6.8-1 .5-2.3.9-3.8.9s-2.8-.3-3.8-.8-2.3-.8-3.8-.8c-1.4 0-2.7.3-3.7.8s-2.3.8-3.8.8v2.4" class="st11"/>
  <path d="M262.9 329c1.5 0 2.8-.3 3.8-.8s2.3-.8 3.7-.8c1.4 0 2.8.3 3.8.8s2.3.8 3.8.8 2.8-.4 3.8-.9 2.2-.8 3.6-.8c1.5 0 2.7.3 3.7.8s2.3.8 3.8.8v-2.3c-1.5 0-2.8-.4-3.8-.9s-2.3-.8-3.7-.8c-1.4 0-2.7.3-3.6.8-1 .5-2.3.9-3.8.9s-2.8-.3-3.8-.8-2.3-.8-3.8-.8c-1.4 0-2.7.3-3.7.8s-2.3.8-3.8.8v2.4z" class="st9"/>
  <path d="M286.3 308c0 .2-.1.4-.1.6 0 1.4 1.2 2.5 2.7 2.5h-22c1.5 0 2.7-1.1 2.7-2.5 0-.2 0-.4-.1-.6H286.3" class="st4"/>
  <path d="M286.3 308c0 .2-.1.4-.1.6 0 1.4 1.2 2.5 2.7 2.5h-22c1.5 0 2.7-1.1 2.7-2.5 0-.2 0-.4-.1-.6H286.3z" class="st10"/>
  <path d="M269.9 306.5h16c.5 0 1 .3 1 .8 0 .4-.4.8-1 .8h-16c-.5 0-1-.3-1-.8s.5-.8 1-.8" class="st4"/>
  <path d="M269.9 306.5h16c.5 0 1 .3 1 .8 0 .4-.4.8-1 .8h-16c-.5 0-1-.3-1-.8s.5-.8 1-.8z" class="st9"/>
  <path d="M266.9 316.7h22v-5.6h-22v5.6z" class="st4"/>
  <path d="M266.9 316.7h22v-5.6h-22v5.6z" class="st9"/>
  <path d="M290.6 286.7c2.2 1.3 3.6 2.5 3.4 3.2-.1.6-.8 1-1.8 1.7-1.6 1.1-2.5 3-1.8 3.9-1.3-1-2.1-2.6-2.1-4.3 0-1.9.9-3.5 2.3-4.5" class="st2"/>
  <path d="M290.6 286.7c2.2 1.3 3.6 2.5 3.4 3.2-.1.6-.8 1-1.8 1.7-1.6 1.1-2.5 3-1.8 3.9-1.3-1-2.1-2.6-2.1-4.3 0-1.9.9-3.5 2.3-4.5z" class="st9"/>
  <path d="M270.1 305.6h15.6v-76.4h-15.6v76.4z" class="st12"/>
  <path d="M281.4 229.1v76.3m1.8-76.3v76.3m-13.1.2h15.6v-76.4h-15.6v76.4z" class="st9"/>
  <path d="M254.2 257.7c3.4-1.4 9.2-2.4 15.8-2.7 2.3 0 4.8.2 7.5.7 9.3 1.6 16.4 5.3 15.9 8.3v.3s3.5-7.9 3.6-8.2c.6-3.4-7.3-7.5-17.6-9.2-3-.5-6.1-.7-9.2-.7-6.6 0-12.4.9-15.9 2.1l-.1 9.4" class="st2"/>
  <path d="M254.2 257.7c3.4-1.4 9.2-2.4 15.8-2.7 2.3 0 4.8.2 7.5.7 9.3 1.6 16.4 5.3 15.9 8.3v.3s3.5-7.9 3.6-8.2c.6-3.4-7.3-7.5-17.6-9.2-3-.5-6.1-.7-9.2-.7-6.6 0-12.4.9-15.9 2.1l-.1 9.4" class="st10"/>
  <path d="M285.7 267.3c4.3-.3 7.3-1.5 7.6-3.3.3-1.4-1.2-3-3.8-4.5-1.2.1-2.5.3-3.8.3v7.5" class="st2"/>
  <path d="M285.7 267.3c4.3-.3 7.3-1.5 7.6-3.3.3-1.4-1.2-3-3.8-4.5-1.2.1-2.5.3-3.8.3v7.5" class="st9"/>
  <path d="M270.1 261.5c-2.7.4-4.7 1.1-5.7 1.9l-.1.2c-.5 1 1.9 3.1 5.9 5.4l-.1-7.5" class="st2"/>
  <path d="M270.1 261.5c-2.7.4-4.7 1.1-5.7 1.9l-.1.2c-.5 1 1.9 3.1 5.9 5.4l-.1-7.5" class="st9"/>
  <path d="M295.4 282.1c.4-1.2-3.8-3.7-9.8-5.9-2.7-1-5-2-7.8-3.2-8.3-3.7-14.4-7.9-13.6-9.4l.1-.2c-.4.4-1.1 7.9-1.1 7.9-.8 1.4 4.8 5.5 12.5 9.2 2.4 1.2 7.6 3.1 10 3.9 4.4 1.5 8.7 4.4 8.3 5.4l1.4-7.7" class="st2"/>
  <path d="M295.4 282.1c.4-1.2-3.8-3.7-9.8-5.9-2.7-1-5-2-7.8-3.2-8.3-3.7-14.4-7.9-13.6-9.4l.1-.2c-.4.4-1.1 7.9-1.1 7.9-.8 1.4 4.8 5.5 12.5 9.2 2.4 1.2 7.6 3.1 10 3.9 4.4 1.5 8.7 4.4 8.3 5.4l1.4-7.7z" class="st10"/>
  <path d="M263.9 254.4c.6-2.2 1.4-4.4 2.1-6.6-.2 0-.3.1-.5.1h-.5c-.4 1.6-.8 3.2-1.4 4.7-.9-1.4-1.9-2.7-2.7-4.1-.3.1-.7.1-1 .2-.3 0-.7.1-1 .1 1.4 1.9 2.7 3.7 4 5.7.2 0 .3-.1.5-.1h.5m5.9-6.6h-.9c-.3 0-.6 0-.8-.1l-.1 6.3 4.3.1c0-.1-.1-.3 0-.4 0-.1 0-.3.1-.4-.8.1-1.6.1-2.6.1v-5.6m6.8 1c.7.1 1.4.2 2 .3v-.4c0-.1.1-.3.1-.4l-5.8-.5v.4c0 .1-.1.3-.1.4h2.1l-.5 5.5h.9c.3 0 .6.1.8.1l.5-5.4m2.4 6.1c.3 0 .6.1.8.1.3.1.5.1.8.2l.7-2.8h.1c.2.4.4.9.5 1.1l.9 2.1c.3.1.7.1 1 .2.3.1.7.2 1 .3l-.3-.6c-.5-1-1-1.9-1.4-2.9 1.1 0 1.9-.3 2.1-1.2.1-.6-.1-1.1-.7-1.5-.4-.3-1.2-.5-1.7-.6l-2.4-.5-1.4 6.1m3-5.2c.7.1 1.5.3 1.5 1 0 .2 0 .3-.1.5-.2.9-.9 1.2-2 .9l.6-2.4m8.1 7.1c-.1.7-.2 1.3-.3 2 .3.1.6.3.9.4.3.2.5.3.8.5l.6-6.9c-.3-.1-.5-.2-.8-.4l-6.1 3.9c.2.1.3.1.5.2s.3.2.5.3c.5-.4 1.1-.8 1.7-1.2l2.2 1.2zm-1.8-1.6l2-1.3-.2 2.3-1.8-1" class="st4"/>
  <path d="M182.2 192.4c0-1.1.9-2 2.1-2 1.1 0 2.1.9 2.1 2s-.9 2-2.1 2c-1.2 0-2.1-.9-2.1-2z" class="st16"/>
  <path fill="#ad1519" stroke="#000" stroke-width=".25" d="M205.7 175.4c6.4 0 12.1.9 15.8 2.4 2.1 1 5 1.7 8.1 2.1 2.4.3 4.6.4 6.6.2 2.6-.1 6.4.7 10.2 2.4 3.1 1.4 5.8 3.1 7.5 4.7l-1.5 1.3-.4 3.8-4.1 4.7-2.1 1.8-4.9 3.9-2.5.2-.8 2.2-31.6-3.7-31.7 3.7-.8-2.2-2.5-.2-4.9-3.9-2.1-1.8-4.1-4.7-.4-3.8-1.5-1.3c1.7-1.6 4.4-3.3 7.5-4.7 3.8-1.7 7.6-2.4 10.2-2.4 2 .1 4.2.1 6.6-.2 3.1-.4 6-1.1 8.1-2.1 3.5-1.4 8.9-2.4 15.3-2.4z"/>
  <path d="M206.1 217.1c-11.8 0-22.3-1.4-29.8-3.7-.6-.2-.8-.7-.8-1.2s.3-1 .8-1.1c7.5-2.3 18.1-3.7 29.8-3.7 11.8 0 22.3 1.4 29.8 3.7.5.2.8.6.8 1.1 0 .5-.3 1-.8 1.2-7.4 2.3-18 3.7-29.8 3.7" class="st18"/>
  <path d="M206.1 215.6c-10.6 0-20.2-1.2-27.5-3.1 7.3-1.9 16.9-3.1 27.5-3.1 10.6 0 20.3 1.2 27.6 3.1-7.3 1.8-17 3.1-27.6 3.1" class="st2"/>
  <path d="M206.9 215.7v-6.3" class="st19"/>
  <path d="M205.2 215.7v-6.3" class="st20"/>
  <path d="M203.6 215.7v-6.3" class="st21"/>
  <path fill="none" stroke="#000" stroke-width=".221" d="M202 215.7v-6.3"/>
  <path fill="none" stroke="#000" stroke-width=".269" d="M200.5 215.7v-6.3"/>
  <path fill="none" stroke="#000" stroke-width=".317" d="M197.8 215.3v-5.7m1.3 5.8v-6"/>
  <path fill="none" stroke="#000" stroke-width=".355" d="M195.3 215.1v-5.3m1.3 5.4v-5.6"/>
  <path fill="none" stroke="#000" stroke-width=".403" d="M191.9 214.8v-4.6m1.1 4.6V210m1.2 5v-5.1"/>
  <path fill="none" stroke="#000" stroke-width=".442" d="M190.8 214.7v-4.5"/>
  <path fill="none" stroke="#000" stroke-width=".49" d="M189.7 214.5v-4.2"/>
  <path fill="none" stroke="#000" stroke-width=".538" d="M188.5 214.4v-3.9"/>
  <path fill="none" stroke="#000" stroke-width=".576" d="M186.1 214v-3.1m1.2 3.3v-3.5"/>
  <path fill="none" stroke="#000" stroke-width=".605" d="M184.8 213.8v-2.7"/>
  <path fill="none" stroke="#000" stroke-width=".653" d="M183.7 213.6v-2.3"/>
  <path fill="none" stroke="#000" stroke-width=".701" d="M182.4 213.2v-1.8"/>
  <path fill="none" stroke="#000" stroke-width=".739" d="M181.2 213.1v-1.3"/>
  <path fill="none" stroke="#000" stroke-width=".874" d="M179.8 212.8v-.6"/>
  <path d="M213.7 215.3v-5.8m-2.9 6v-6.1m-2.1 6.2v-6.2" class="st16"/>
  <path d="M206.1 207.4c-11.9 0-22.6 1.5-30.1 3.8.6-.3.6-1.1-.2-3.1-.9-2.4-2.4-2.3-2.4-2.3 8.3-2.5 19.9-4 32.8-4 12.9 0 24.6 1.6 32.9 4 0 0-1.5-.1-2.4 2.3-.8 2-.8 2.8-.2 3.1-7.6-2.2-18.5-3.7-30.4-3.8" class="st18"/>
  <path d="M206.1 201.9c-12.9 0-24.5 1.6-32.8 4-.6.2-1.1-.1-1.3-.6-.2-.5.1-1.1.7-1.3 8.4-2.6 20.2-4.2 33.4-4.2s25.1 1.6 33.5 4.2c.6.2.9.8.7 1.3-.2.5-.8.7-1.3.6-8.4-2.5-20-4-32.9-4" class="st18"/>
  <path d="M206.1 215.6c-10.6 0-20.2-1.2-27.5-3.1 7.3-1.9 16.9-3.1 27.5-3.1 10.6 0 20.3 1.2 27.6 3.1-7.3 1.8-17 3.1-27.6 3.1z" class="st10"/>
  <path d="M196.9 204.8c0-.6.5-1 1.1-1 .6 0 1.1.4 1.1 1 0 .5-.5 1-1.1 1-.6 0-1.1-.4-1.1-1" class="st36"/>
  <path d="M206.1 205.6H203c-.6 0-1.1-.4-1.1-1 0-.5.5-1 1.1-1h6.4c.6 0 1.1.4 1.1 1s-.5 1-1.1 1h-3.3" class="st37"/>
  <path d="M190.3 206.5l-2.3.3c-.6.1-1.1-.3-1.2-.9-.1-.5.3-1 .9-1.1l2.3-.3 2.3-.3c.6-.1 1.1.3 1.2.9.1.5-.4 1-.9 1.1l-2.3.3" class="st38"/>
  <path d="M181.1 206.7c0-.6.5-1 1.1-1 .6 0 1.1.4 1.1 1s-.5 1-1.1 1c-.7 0-1.1-.5-1.1-1" class="st36"/>
  <path d="M174.1 208.5l1.2-1.5 3.2.4-2.6 1.9-1.8-.8" class="st37"/>
  <path d="M222 206.5l2.3.3c.6.1 1.1-.3 1.2-.9.1-.5-.3-1-.9-1.1l-2.3-.3-2.3-.3c-.6-.1-1.1.3-1.2.9-.1.5.4 1 .9 1.1l2.3.3" class="st38"/>
  <path d="M213.3 204.8c0-.6.5-1 1.1-1 .6 0 1.1.4 1.1 1 0 .5-.5 1-1.1 1-.7 0-1.1-.4-1.1-1m15.8 1.9c0-.6.5-1 1.1-1 .6 0 1.1.4 1.1 1s-.5 1-1.1 1c-.6 0-1.1-.5-1.1-1" class="st36"/>
  <path d="M238.2 208.5L237 207l-3.2.4 2.6 1.9 1.8-.8" class="st37"/>
  <path d="M177.3 212.8c7.4-2.1 17.6-3.4 28.8-3.4s21.4 1.3 28.9 3.4" class="st9"/>
  <path d="M182.3 183.8l1.3 1.1 2-3.3c-2.2-1.3-3.7-3.6-3.7-6.3 0-.3 0-.6.1-.9.2-4.2 5.3-7.6 11.7-7.6 3.3 0 6.4.9 8.5 2.4.1-.6.1-1.2.2-1.8-2.3-1.4-5.4-2.2-8.7-2.2-7.4 0-13.2 4.2-13.5 9.2v.9c0 2.7 1.2 5.1 3.1 6.7l-1 1.8" class="st4"/>
  <path d="M182.3 183.8l1.3 1.1 2-3.3c-2.2-1.3-3.7-3.6-3.7-6.3 0-.3 0-.6.1-.9.2-4.2 5.3-7.6 11.7-7.6 3.3 0 6.4.9 8.5 2.4.1-.6.1-1.2.2-1.8-2.3-1.4-5.4-2.2-8.7-2.2-7.4 0-13.2 4.2-13.5 9.2v.9c0 2.7 1.2 5.1 3.1 6.7l-1 1.8" class="st9"/>
  <path d="M182.4 183.8c-2.5-1.9-4.1-4.4-4.1-7.3 0-3.3 2.1-6.2 5.4-8.1-2 1.6-3.2 3.7-3.4 6v.9c0 2.7 1.2 5.1 3.1 6.7l-1 1.8" class="st4"/>
  <path d="M182.4 183.8c-2.5-1.9-4.1-4.4-4.1-7.3 0-3.3 2.1-6.2 5.4-8.1-2 1.6-3.2 3.7-3.4 6v.9c0 2.7 1.2 5.1 3.1 6.7l-1 1.8" class="st9"/>
  <path d="M160.1 187.1c-1.4-1.6-2.3-3.6-2.3-5.9 0-1.4.3-2.6.9-3.8 2-4.2 8.5-7.3 16.1-7.3 2.1 0 4.1.2 5.9.6-.4.4-.7.9-1 1.4-1.6-.3-3.2-.5-4.9-.5-7 0-12.8 2.7-14.5 6.4-.5 1-.7 2-.7 3.1 0 2.2 1 4.2 2.7 5.6l-2.5 4.1-1.4-1.1 1.7-2.6" class="st4"/>
  <path d="M160.1 187.1c-1.4-1.6-2.3-3.6-2.3-5.9 0-1.4.3-2.6.9-3.8 2-4.2 8.5-7.3 16.1-7.3 2.1 0 4.1.2 5.9.6-.4.4-.7.9-1 1.4-1.6-.3-3.2-.5-4.9-.5-7 0-12.8 2.7-14.5 6.4-.5 1-.7 2-.7 3.1 0 2.2 1 4.2 2.7 5.6l-2.5 4.1-1.4-1.1 1.7-2.6z" class="st9"/>
  <path d="M162.7 173.3c-1.8 1.2-3.2 2.6-4 4.2-.6 1.2-.9 2.5-.9 3.8 0 2.2.9 4.3 2.3 5.9l-1.5 2.5c-1.5-1.9-2.3-4.1-2.3-6.4 0-4.2 2.5-7.7 6.4-10" class="st4"/>
  <path d="M162.7 173.3c-1.8 1.2-3.2 2.6-4 4.2-.6 1.2-.9 2.5-.9 3.8 0 2.2.9 4.3 2.3 5.9l-1.5 2.5c-1.5-1.9-2.3-4.1-2.3-6.4 0-4.2 2.5-7.7 6.4-10z" class="st9"/>
  <path d="M206 164.4c1.7 0 3.1 1.1 3.5 2.6.2 1.3.4 2.8.4 4.4v1.1c.1 3.4.5 6.4 1.2 8.2l-5.2 4.9-5.2-4.9c.7-1.8 1.2-4.8 1.2-8.2v-.6-.5c0-1.6.2-3.1.4-4.4.5-1.5 2-2.6 3.7-2.6" class="st4"/>
  <path d="M206 164.4c1.7 0 3.1 1.1 3.5 2.6.2 1.3.4 2.8.4 4.4v1.1c.1 3.4.5 6.4 1.2 8.2l-5.2 4.9-5.2-4.9c.7-1.8 1.2-4.8 1.2-8.2v-.6-.5c0-1.6.2-3.1.4-4.4.5-1.5 2-2.6 3.7-2.6z" class="st9"/>
  <path d="M206 166c.9 0 1.6.6 1.8 1.3.2 1.3.4 2.7.4 4.2v1.1c.1 3.2.5 6 1.2 7.7l-3.4 3.2-3.4-3.2c.6-1.7 1.1-4.5 1.2-7.7v-.6-.5c0-1.4.1-2.8.4-4.2.2-.7 1-1.3 1.8-1.3" class="st4"/>
  <path d="M206 166c.9 0 1.6.6 1.8 1.3.2 1.3.4 2.7.4 4.2v1.1c.1 3.2.5 6 1.2 7.7l-3.4 3.2-3.4-3.2c.6-1.7 1.1-4.5 1.2-7.7v-.6-.5c0-1.4.1-2.8.4-4.2.2-.7 1-1.3 1.8-1.3z" class="st9"/>
  <path d="M229.7 183.8l-1.3 1.1-2-3.3c2.2-1.3 3.7-3.6 3.7-6.3 0-.3 0-.6-.1-.9-.2-4.2-5.3-7.6-11.7-7.6-3.3 0-6.4.9-8.5 2.4 0-.6-.1-1.2-.2-1.8 2.3-1.4 5.4-2.2 8.7-2.2 7.4 0 13.2 4.2 13.5 9.2v.9c0 2.7-1.2 5.1-3.1 6.7l1 1.8" class="st4"/>
  <path d="M229.7 183.8l-1.3 1.1-2-3.3c2.2-1.3 3.7-3.6 3.7-6.3 0-.3 0-.6-.1-.9-.2-4.2-5.3-7.6-11.7-7.6-3.3 0-6.4.9-8.5 2.4 0-.6-.1-1.2-.2-1.8 2.3-1.4 5.4-2.2 8.7-2.2 7.4 0 13.2 4.2 13.5 9.2v.9c0 2.7-1.2 5.1-3.1 6.7l1 1.8" class="st9"/>
  <path d="M229.6 183.8c2.5-1.9 4.1-4.4 4.1-7.3 0-3.3-2.1-6.2-5.4-8.1 2 1.6 3.2 3.7 3.4 6v.9c0 2.7-1.2 5.1-3.1 6.7l1 1.8" class="st4"/>
  <path d="M229.6 183.8c2.5-1.9 4.1-4.4 4.1-7.3 0-3.3-2.1-6.2-5.4-8.1 2 1.6 3.2 3.7 3.4 6v.9c0 2.7-1.2 5.1-3.1 6.7l1 1.8" class="st9"/>
  <path d="M251.9 187.1c1.4-1.6 2.3-3.6 2.3-5.9 0-1.3-.3-2.6-.9-3.8-2.1-4.2-8.5-7.3-16.1-7.3-2.1 0-4.1.2-5.9.6.4.4.7.9 1 1.4 1.6-.3 3.2-.5 4.9-.5 7 0 12.8 2.7 14.5 6.4.5.9.7 2 .7 3.1 0 2.2-1 4.2-2.7 5.6l2.5 4.1 1.4-1.1-1.7-2.6" class="st4"/>
  <path d="M251.9 187.1c1.4-1.6 2.3-3.6 2.3-5.9 0-1.3-.3-2.6-.9-3.8-2.1-4.2-8.5-7.3-16.1-7.3-2.1 0-4.1.2-5.9.6.4.4.7.9 1 1.4 1.6-.3 3.2-.5 4.9-.5 7 0 12.8 2.7 14.5 6.4.5.9.7 2 .7 3.1 0 2.2-1 4.2-2.7 5.6l2.5 4.1 1.4-1.1-1.7-2.6z" class="st9"/>
  <path d="M249.3 173.3c1.8 1.2 3.2 2.6 4 4.2.6 1.2.9 2.5.9 3.8 0 2.2-.9 4.3-2.3 5.9l1.5 2.5c1.5-1.9 2.3-4.1 2.3-6.4.1-4.2-2.5-7.7-6.4-10" class="st4"/>
  <path d="M249.3 173.3c1.8 1.2 3.2 2.6 4 4.2.6 1.2.9 2.5.9 3.8 0 2.2-.9 4.3-2.3 5.9l1.5 2.5c1.5-1.9 2.3-4.1 2.3-6.4.1-4.2-2.5-7.7-6.4-10z" class="st9"/>
  <path d="M204.2 181.4c0-1 .8-1.7 1.8-1.7s1.8.8 1.8 1.7c0 1-.8 1.7-1.8 1.7s-1.8-.8-1.8-1.7" class="st7"/>
  <path d="M204.2 181.4c0-1 .8-1.7 1.8-1.7s1.8.8 1.8 1.7c0 1-.8 1.7-1.8 1.7s-1.8-.8-1.8-1.7z" class="st9"/>
  <path d="M204.2 178c0-1 .8-1.7 1.8-1.7s1.8.8 1.8 1.7c0 1-.8 1.7-1.8 1.7s-1.8-.8-1.8-1.7m.4-3.7c0-.8.7-1.4 1.5-1.4s1.5.6 1.5 1.4c0 .8-.7 1.4-1.5 1.4-.9 0-1.5-.6-1.5-1.4m.4-3.3c0-.5.5-1 1.1-1 .6 0 1.1.4 1.1 1s-.5 1-1.1 1c-.6 0-1.1-.4-1.1-1m.2-2.8c0-.4.4-.8.8-.8.5 0 .8.4.8.8s-.4.8-.8.8-.8-.4-.8-.8" class="st36"/>
  <path d="M206.2 191.8l1.2.2c-.2.5-.2 1-.2 1.6 0 2.5 2.1 4.5 4.7 4.5 2.1 0 3.9-1.3 4.5-3.1.1 0 .4-1.6.6-1.6.2 0 .1 1.7.2 1.7.3 2.3 2.4 3.8 4.7 3.8 2.6 0 4.7-2 4.7-4.5v-.5l1.5-1.5.8 1.9c-.3.6-.4 1.2-.4 1.9 0 2.4 2 4.3 4.5 4.3 1.6 0 2.9-.8 3.7-1.9l.9-1.2v1.5c0 1.5.6 2.8 2.1 3 0 0 1.7.1 3.9-1.6 2.2-1.7 3.4-3.2 3.4-3.2l.2 1.7s-1.8 2.8-3.8 4c-1.1.6-2.7 1.3-4.1 1.1-1.4-.2-2.4-1.3-2.9-2.6-1 .6-2.2.9-3.4.9-2.7 0-5.1-1.5-6.1-3.7-1.2 1.3-3 2.2-5 2.2-2.1 0-4.1-1-5.4-2.5-1.3 1.2-3 1.8-4.7 1.8-2.4 0-4.5-1.2-5.7-2.9-1.2 1.8-3.3 2.9-5.7 2.9-1.7 0-3.4-.6-4.7-1.8-1.2 1.5-3.2 2.5-5.4 2.5-2 0-3.7-.8-5-2.2-1 2.2-3.4 3.7-6.1 3.7-1.2 0-2.4-.3-3.4-.9-.5 1.3-1.5 2.4-2.9 2.6-1.3.2-3-.4-4.1-1.1-2-1.1-3.8-4-3.8-4l.2-1.7s1.2 1.4 3.4 3.2c2.2 1.7 3.9 1.6 3.9 1.6 1.4-.2 2.1-1.6 2.1-3v-1.5l.9 1.2c.8 1.1 2.2 1.9 3.7 1.9 2.5 0 4.5-1.9 4.5-4.3 0-.7-.1-1.4-.4-2l.8-1.9 1.5 1.5v.5c0 2.5 2.1 4.5 4.7 4.5 2.3 0 4.4-1.5 4.7-3.8.1 0 0-1.7.2-1.7s.6 1.6.6 1.6c.6 1.8 2.4 3.1 4.5 3.1 2.6 0 4.7-2 4.7-4.5 0-.6 0-1.1-.2-1.6l1.4-.1" class="st18"/>
  <path d="M238.6 197.7c.3-.8 0-1.6-.5-1.8-.6-.2-1.3.3-1.5 1.1-.3.8 0 1.6.5 1.8.5.2 1.2-.3 1.5-1.1m-20.5-4c.1-.8-.3-1.6-.9-1.6-.6-.1-1.2.5-1.3 1.4-.1.8.3 1.6.9 1.6.6 0 1.2-.6 1.3-1.4m-23.8 0c-.1-.8.3-1.6.9-1.6.6-.1 1.2.5 1.3 1.4.1.8-.3 1.6-.9 1.6-.7 0-1.2-.6-1.3-1.4m-20.6 4c-.3-.8 0-1.6.5-1.8.6-.2 1.3.3 1.5 1.1.3.8 0 1.6-.5 1.8-.5.2-1.2-.3-1.5-1.1" class="st36"/>
  <path d="M182.6 184c1 .6 1.9 1.7 2.2 2.9 0 0 .1-.2.7-.6.6-.3 1-.3 1-.3s-.2.9-.2 1.3c-.1.3-.1 1.3-.3 2.2-.2.9-.6 1.6-.6 1.6-.4-.3-1-.5-1.5-.4-.5.1-1 .4-1.3.9 0 0-.6-.5-1.2-1.3-.5-.8-.9-1.7-1.1-2-.2-.3-.7-1.1-.7-1.1s.4-.2 1.1-.1c.6.1.8.3.8.3 0-1.2.4-2.5 1.1-3.4" class="st18"/>
  <path d="M183.1 193.8c-.3-.3-.6-.6-.6-1-.1-.4 0-.8.2-1.2 0 0-.9-.4-1.8-.7-.7-.2-1.9-.2-2.3-.2h-1.1s.1.2.3.5c.3.4.5.7.5.7-1.2.3-2.3 1.1-2.9 2 1 .7 2.2 1.1 3.5.9 0 0-.1.3-.2.8-.1.4-.1.6-.1.6l1-.4c.3-.1 1.5-.5 2.1-.9.7-.4 1.4-1.1 1.4-1.1m2.7-.5c.2-.3.3-.8.2-1.2-.1-.4-.3-.8-.6-1 0 0 .6-.7 1.4-1.2.6-.4 1.7-.8 2.1-.9.3-.1 1-.4 1-.4s0 .2-.1.6c0 .3-.1.6-.2.8 1.2-.1 2.5.3 3.5.9-.7.9-1.7 1.7-2.9 2 .2.4.5.9.7 1.2h-1.1c-.4 0-1.6 0-2.3-.2-.8-.1-1.7-.6-1.7-.6" class="st18"/>
  <path d="M182.2 192.4c0-1.1.9-2 2.1-2 1.1 0 2.1.9 2.1 2s-.9 2-2.1 2c-1.2 0-2.1-.9-2.1-2" class="st37"/>
  <path d="M206.1 180.8c1 .9 1.8 2.3 1.9 3.7 0 0 .2-.3.9-.5.7-.3 1.2-.2 1.2-.2s-.4 1-.5 1.4c-.2.4-.4 1.5-.8 2.4-.3.6-.6 1.2-1 1.7-.4-.5-1-.7-1.6-.7-.6 0-1.2.3-1.6.7 0 0-.6-.7-1-1.7s-.6-2.1-.8-2.4c-.2-.4-.5-1.4-.5-1.4s.5-.1 1.2.2c.7.3.9.5.9.5 0-1.4.7-2.8 1.7-3.7" class="st18"/>
  <path d="M204.6 191.8c-.3-.3-.5-.8-.5-1.3s.2-.9.5-1.3c0 0-.9-.6-1.8-1.1-.7-.3-2.1-.6-2.5-.6l-1.2-.2s0 .2.2.6c.2.5.4.9.4.9-1.4.1-2.7.8-3.7 1.7.9.9 2.2 1.6 3.7 1.7 0 0-.2.3-.4.9-.2.4-.2.6-.2.6s.8-.1 1.2-.2c.4-.1 1.8-.3 2.5-.6.9-.4 1.8-1.1 1.8-1.1m3.1 0c.3-.3.5-.8.5-1.3s-.2-.9-.5-1.3c0 0 .9-.6 1.8-1.1.7-.3 2.1-.6 2.5-.6l1.2-.2s0 .2-.2.6c-.2.5-.4.9-.4.9 1.4.1 2.7.8 3.7 1.7-.9.9-2.2 1.6-3.7 1.7 0 0 .2.3.4.9.2.4.2.6.2.6l-1.2-.2c-.4-.1-1.8-.3-2.5-.6-.9-.4-1.8-1.1-1.8-1.1m22-7.8c-1 .6-1.9 1.7-2.2 2.9 0 0-.1-.2-.7-.6-.6-.3-1-.3-1-.3s.2.9.2 1.3c.1.3.1 1.3.3 2.2.2.9.6 1.6.6 1.6.4-.3 1-.5 1.5-.4.6.1 1 .4 1.3.9 0 0 .6-.5 1.2-1.3.5-.8.9-1.7 1.1-2 .2-.3.7-1.1.7-1.1s-.4-.2-1.1-.1c-.6.1-.8.3-.8.3 0-1.2-.4-2.5-1.1-3.4M229.3 193.8c.3-.3.6-.6.6-1 .1-.4 0-.8-.2-1.2 0 0 .8-.4 1.8-.7.7-.2 1.9-.2 2.3-.2h1.1s-.1.2-.3.5c-.1.2-.3.5-.5.7 1.2.3 2.3 1.1 2.9 2-.9.7-2.2 1.1-3.5.9 0 0 .1.3.2.8.1.4.1.6.1.6s-.7-.3-1-.4c-.3-.1-1.5-.5-2.1-.9-.8-.4-1.4-1.1-1.4-1.1m-2.8-.5c-.2-.4-.3-.8-.2-1.2.1-.4.3-.8.6-1 0 0-.6-.7-1.4-1.2-.6-.4-1.7-.8-2.1-.9-.3-.1-.7-.3-1-.4 0 0 0 .2.1.6.1.5.2.8.2.8-1.2-.1-2.5.3-3.5.9.7.9 1.7 1.7 2.9 2 0 0-.2.3-.5.7-.2.4-.3.5-.3.5h1.1c.4 0 1.6 0 2.3-.2.7-.1 1.3-.3 1.8-.6" class="st18"/>
  <path d="M226 192.4c0-1.1.9-2 2.1-2 1.2 0 2.1.9 2.1 2s-.9 2-2.1 2c-1.2 0-2.1-.9-2.1-2m23.2 4.4c-.5-.5-1.5-.4-2.3.2-.8.6-1 1.6-.5 2.1s1.5.4 2.3-.2c.8-.6 1-1.6.5-2.1" class="st37"/>
  <path d="M246.3 198.1c.1-.4.3-.7.7-1 .8-.6 1.8-.8 2.3-.2.1.1.1.2.2.2 0 0 1.1-2 2.3-2.7 1.2-.7 3.4-.5 3.4-.5 0-1.5-1.3-2.8-2.9-2.8-1 0-1.9.4-2.4 1.1l-.2-1s-1.3.3-1.9 1.8c-.6 1.5.1 3.6.1 3.6s-.3-.9-.8-1.5-1.7-1.3-2.4-1.6c-.7-.3-1.3-.8-1.3-.8s0 .2-.1.6v.8c-1.2-.2-2.6 0-3.7.5.5.9 1.4 1.8 2.5 2.2 0 0-.4.3-.8.7-.2.1-.3.3-.4.5 0 0 .8.1 1.2.2.4.1 1.8.3 2.6.2.5-.2 1-.2 1.6-.3m-80.3 0c-.1-.4-.3-.7-.7-1-.8-.6-1.8-.8-2.3-.2-.1.1-.1.2-.2.2 0 0-1.1-2-2.3-2.7-1.2-.7-3.4-.5-3.4-.5 0-1.5 1.3-2.8 2.9-2.8 1 0 1.8.4 2.4 1.1l.2-1s1.3.3 1.9 1.8c.6 1.5-.1 3.6-.1 3.6s.3-.9.8-1.5 1.7-1.3 2.4-1.6c.6-.3 1.3-.8 1.3-.8s0 .2.1.6v.8c1.2-.2 2.6 0 3.7.5-.5.9-1.3 1.8-2.5 2.2 0 0 .4.3.8.7.3.3.4.5.4.5l-1.2.2c-.4.1-1.8.3-2.6.2-.5-.2-1-.2-1.6-.3" class="st18"/>
  <path d="M163.1 196.8c.5-.5 1.5-.4 2.3.2.8.6 1 1.6.5 2.1s-1.5.4-2.3-.2c-.8-.6-1-1.6-.5-2.1m41-6.2c0-1.1.9-2 2.1-2 1.1 0 2.1.9 2.1 2s-.9 2-2.1 2c-1.2-.1-2.1-.9-2.1-2" class="st37"/>
  <path fill="#005bbf" stroke="#000" stroke-width=".25" d="M201.8 160.6c0-2.2 1.9-4 4.3-4 2.3 0 4.2 1.8 4.2 4s-1.9 4-4.2 4c-2.4 0-4.3-1.8-4.3-4"/>
  <path fill="#c8b100" stroke="#000" stroke-width=".25" d="M204.9 149.3v2.2h-2.3v2.2h2.3v6.3H202c0 .2-.2.4-.2.6 0 .6.1 1.1.3 1.6h7.8c.2-.5.3-1 .3-1.6 0-.2-.2-.4-.2-.6h-2.8v-6.3h2.3v-2.2h-2.3v-2.2h-2.3z"/>
  <path d="M206.5 330.6c-12.6 0-25-3.1-35.5-8.2-7.7-3.8-12.8-11.5-12.8-20.3v-32h96.4v32c0 8.8-5.1 16.5-12.8 20.3-10.5 5.1-22.8 8.2-35.3 8.2" class="st12"/>
  <path d="M206.5 330.6c-12.6 0-25-3.1-35.5-8.2-7.7-3.8-12.8-11.5-12.8-20.3v-32h96.4v32c0 8.8-5.1 16.5-12.8 20.3-10.5 5.1-22.8 8.2-35.3 8.2z" class="st41"/>
  <path d="M206.3 270h48.3v-53.5h-48.3V270z" class="st12"/>
  <path d="M206.3 270h48.3v-53.5h-48.3V270z" class="st41"/>
  <path d="M206.3 302c0 12.6-10.7 22.9-24 22.9s-24.2-10.2-24.2-22.9v-32h48.2v32" class="st2"/>
  <path d="M168.6 320.9c1.5.8 3.6 2.1 5.8 2.7l-.1-54.7h-5.6l-.1 52z" class="st42"/>
  <path fill="#c8b100" stroke="#000" stroke-linejoin="round" stroke-width=".48" d="M158 301.6c.1 6.7 2.8 11.8 5.5 15v-47.5h-5.4l-.1 32.5z"/>
  <path fill="#c7b500" stroke="#000" stroke-width=".499" d="M179.4 324.7c1.9.2 3.8.2 5.6 0v-55.9h-5.6v55.9z"/>
  <path d="M190 323.5c2.2-.4 4.7-1.8 5.8-2.5v-52.2h-5.6l-.2 54.7z" class="st42"/>
  <path d="M158.1 270h48.2v-53.5h-48.2V270z" class="st2"/>
  <path d="M158.1 270h48.2v-53.5h-48.2V270z" class="st41"/>
  <path d="M201 316.1c2.4-2.1 4.6-6.8 5.4-12.2l.1-35h-5.6l.1 47.2z" class="st42"/>
  <path d="M206.3 302c0 12.6-10.7 22.9-24 22.9s-24.2-10.2-24.2-22.9v-32h48.2v32" class="st41"/>
  <path d="M254.6 270v32c0 12.6-10.8 22.9-24.2 22.9-13.3 0-24.2-10.2-24.2-22.9v-32h48.4" class="st2"/>
  <path d="M254.6 270v32c0 12.6-10.8 22.9-24.2 22.9-13.3 0-24.2-10.2-24.2-22.9v-32h48.4" class="st41"/>
  <path d="M215.1 294.1c.1.2.1.3.1.5 0 .6-.5 1.1-1.1 1.1-.6 0-1.1-.5-1.1-1.1 0-.2 0-.3.1-.5h-1.6c0 .2-.1.3-.1.5 0 1.1.8 2.1 1.8 2.4v3.9h1.6V297c.8-.2 1.4-.8 1.6-1.5h4.4v-1.3l-5.7-.1m21.7 0v1.3h-4c-.1.2-.2.3-.3.5l4.6 5.2-1.2 1-4.6-5.2c-.1 0-.1.1-.2.1v8.7h-1.6V297c-.1 0-.1 0-.2-.1l-4.8 5.3-1.2-1 4.8-5.3c-.1-.1-.1-.3-.2-.4h-4.1v-1.3l13-.1zm2.6 0v1.3h4.4c.3.7.9 1.3 1.6 1.5v3.9h1.6v-3.9c1.1-.3 1.8-1.3 1.8-2.4 0-.2 0-.3-.1-.5h-1.6c.1.2.1.3.1.5 0 .6-.5 1.1-1.1 1.1-.6 0-1.1-.5-1.1-1.1 0-.2 0-.3.1-.5l-5.7.1m-6.7 22.2c1.3-.2 2.5-.6 3.6-1.1l.8 1.4c-1.4.6-2.8 1-4.3 1.2-.3 1.1-1.3 2-2.6 2s-2.3-.8-2.6-1.9c-1.6-.2-3.1-.6-4.5-1.2l.8-1.4c1.2.5 2.6.9 3.9 1.1.3-.6.8-1.1 1.5-1.3v-6.7h1.6v6.7c.9 0 1.5.5 1.8 1.2zm-11-2.3l-.8 1.4c-1.4-.8-2.6-1.9-3.6-3.1-.8.2-1.8.1-2.5-.5-1.1-.9-1.2-2.5-.3-3.5l.1-.1c-.7-1.5-1.1-3.1-1.3-4.8h1.6c.1 1.4.5 2.8 1.1 4.1.5-.1 1 0 1.4.2l4.1-4.5 1.2 1-4.1 4.5c.6.8.5 1.9-.1 2.7 1 1 2.1 1.9 3.2 2.6zm-6.1-4.8c.4-.5 1.1-.5 1.6-.1s.5 1.1.1 1.5c-.4.4-1.1.5-1.6.1-.4-.3-.5-1-.1-1.5 0 .1 0 0 0 0zm-2.1-4.5l-1.7-.4-.2-4.3 1.7-.6v2.5c0 1 .1 1.9.2 2.8zm1.4-5.3l1.7.4s.1 2.7.1 2.1c0-.7.2 2.1.2 2.1l-1.7.6c-.2-.9-.2-1.8-.2-2.7l-.1-2.5zm5.6 13.7c1.4 1.1 3.1 2 4.8 2.6l.4-1.6c-1.4-.4-2.8-1.1-4-2l-1.2 1m-.8 1.4c1.5 1.1 3.1 2 4.8 2.5l-1.3 1.2c-1.4-.5-2.7-1.2-4-2l.5-1.7m2.2-9.4l1.6.7 2.9-3.3-1-1.4-3.5 4m-1.3-1l-1-1.4 2.9-3.3 1.6.7-3.5 4m18.1 9.9l.8 1.4c1.4-.8 2.6-1.9 3.6-3.1.8.2 1.8.1 2.5-.5 1.1-.9 1.2-2.5.3-3.5l-.1-.1c.7-1.5 1.1-3.1 1.3-4.8h-1.6c-.1 1.4-.5 2.8-1.1 4.1-.5-.1-1 0-1.4.2l-4.1-4.5-1.2 1 4.1 4.5c-.6.8-.5 1.9.1 2.7-1 1-2.1 1.9-3.2 2.6zm6.1-4.8c-.4-.4-1.1-.5-1.6-.1-.4.3-.5 1-.2 1.4l.1.1c.4.4 1.1.5 1.6.1.4-.3.5-1 .1-1.5 0 .1 0 .1 0 0zm2.1-4.5l1.7-.4.2-4.3-1.7-.6v2.5c0 1-.1 1.9-.2 2.8zm-1.4-5.3l-1.7.4s-.1 2.7-.1 2.1c0-.7-.2 2.1-.2 2.1l1.7.6c.2-.9.2-1.8.2-2.7l.1-2.5m-5.6 13.7c-1.4 1.1-3.1 2-4.8 2.6l-.4-1.6c1.4-.4 2.8-1.1 4-2l1.2 1m.8 1.4c-1.5 1.1-3.1 2-4.8 2.5l1.3 1.2c1.4-.5 2.7-1.2 4-2l-.5-1.7m-2.2-9.4l-1.6.7-2.9-3.3 1-1.4 3.5 4m1.3-1l1-1.4-2.9-3.3-1.6.7 3.5 4m-20.1-8.7l.5 1.6h4.5l.5-1.6h-5.5m21.1 0l-.5 1.6h-4.5l-.5-1.6h5.5m-11.6 21.9c0-.6.5-1.1 1.1-1.1.6 0 1.1.5 1.1 1.1 0 .6-.5 1.1-1.1 1.1-.6-.1-1.1-.5-1.1-1.1zm1.9-7.8l1.7-.5v-4.3l-1.7-.5v5.3m-1.6 0l-1.7-.5v-4.3l1.7-.5v5.3" class="st4"/>
  <path d="M211.5 294.2c.2-.9.9-1.6 1.8-1.9V287h1.6v5.3c.8.3 1.4.8 1.7 1.6h4.4v.2h-5.9c-.2-.4-.6-.6-1-.6s-.8.2-1 .6l-1.6.1m12.2 0v-.2h4.1c0-.1.1-.3.2-.4l-5-5.6 1.2-1 5 5.5c.1 0 .2-.1.3-.1V285h1.6v7.3c.1 0 .2 0 .3.1l4.9-5.5 1.2 1-4.9 5.5.3.6h4v.2h-13.2zm21.6 0c.2-.4.6-.6 1-.6s.8.2 1 .6h1.6c-.2-.9-.9-1.6-1.8-1.9V287h-1.6v5.3c-.8.3-1.4.8-1.7 1.6h-4.4v.2l5.9.1m-30.1-14.9l6.1 6.8 1.2-1-6.1-6.8.3-.6h4.4v-1.5h-4.4c-.3-1-1.3-1.7-2.5-1.7-1.4 0-2.6 1.1-2.6 2.5 0 1.1.7 2 1.8 2.4v5.2h1.6v-5.2c0-.1.1-.1.2-.1zm31.9 0v5.2h-1.6v-5.2c-.1 0-.2-.1-.4-.1l-6 6.8-1.2-1 6.1-6.9c-.1-.1-.1-.2-.1-.3h-4.5v-1.5h4.4c.3-1 1.3-1.7 2.5-1.7 1.4 0 2.6 1.1 2.6 2.5 0 .9-.7 1.9-1.8 2.2zm-16 0v3.2h-1.6v-3.2c-.8-.2-1.4-.8-1.7-1.6h-4v-1.5h4c.3-1 1.3-1.7 2.5-1.7s2.2.7 2.5 1.7h4.1v1.5h-4.1c-.4.7-1 1.3-1.7 1.6zm-17.8 3.9l-1.7.5v4.3l1.7.5v-5.3m1.7 0l1.7.5v4.3l-1.7.5v-5.3m30.5 0l-1.7.5v4.3l1.7.5v-5.3m1.6 0l1.7.5v4.3l-1.7.5v-5.3m-25.5.8l1.6-.7 2.9 3.3-1 1.4-3.5-4m-1.3 1l-1 1.4 2.9 3.3 1.6-.7-3.5-4m18.5-1.1l-1.6-.7-2.9 3.3 1 1.4 3.5-4m1.2 1l1 1.4-2.9 3.3-1.6-.7 3.5-4m-20.3 9l.5-1.6h4.5l.5 1.6h-5.5m-6.7-17c0-.6.5-1.1 1.1-1.1.6 0 1.1.5 1.1 1.1 0 .6-.5 1.1-1.1 1.1-.6 0-1.1-.5-1.1-1.1zm12.1.8l-.5 1.6h-4.5l-.5-1.6h5.5m0-1.6l-.5-1.6h-4.5l-.5 1.6h5.5m15.7 17.8l-.5-1.6h-4.5l-.5 1.6h5.5m4.4-17c0-.6.5-1.1 1.1-1.1.6 0 1.1.5 1.1 1.1 0 .6-.5 1.1-1.1 1.1-.6 0-1.1-.5-1.1-1.1zm-16.1 0c0-.6.5-1.1 1.1-1.1.6 0 1.1.5 1.1 1.1 0 .6-.5 1.1-1.1 1.1-.6 0-1.1-.5-1.1-1.1zm6.2.8l.5 1.6h4.5l.5-1.6h-5.5m0-1.6l.5-1.6h4.5l.5 1.6h-5.5m-5.9 5l-1.7.5v4.3l1.7.5v-5.3m1.7 0l1.7.5v4.3l-1.7.5v-5.3" class="st4"/>
  <path d="M232.7 316.3c1.3-.2 2.5-.6 3.6-1.1l.8 1.4c-1.4.6-2.8 1-4.3 1.2-.3 1.1-1.3 2-2.6 2s-2.3-.8-2.6-1.9c-1.6-.2-3.1-.6-4.5-1.2l.8-1.4c1.2.5 2.6.9 3.9 1.1.3-.6.8-1.1 1.5-1.3v-6.7h1.6v6.7c.9 0 1.5.5 1.8 1.2zm-4.7-20.4c-.1-.1-.1-.3-.2-.4h-4.1V294h4.1c0-.1.1-.3.2-.4l-5-5.6 1.2-1 5 5.5c.1 0 .2-.1.3-.1v-7.3h1.6v7.3c.1 0 .2 0 .3.1l4.9-5.5 1.2 1-4.9 5.5.3.6h4v1.5h-4c-.1.2-.2.3-.3.5l4.6 5.2-1.2 1-4.6-5.3c-.1 0-.1.1-.2.1v8.7h-1.6v-8.7c-.1 0-.1-.1-.2-.1l-4.8 5.3-1.2-1 4.6-5.4m-12.8-16.7l6.1 6.8 1.2-1-6.1-6.7.3-.6h4.4v-1.5h-4.4c-.3-1-1.3-1.7-2.5-1.7-1.4 0-2.6 1.1-2.6 2.5 0 1.1.7 2 1.8 2.3v5.2h1.6v-5.2s.1 0 .2-.1zm6.5 34.8l-.8 1.4c-1.4-.8-2.6-1.9-3.6-3.1-.8.2-1.8.1-2.5-.5-1.1-.9-1.2-2.5-.3-3.5l.1-.1c-.7-1.5-1.1-3.1-1.3-4.8h1.6c.1 1.4.5 2.8 1.1 4.1.5-.1 1 0 1.4.2l4.1-4.5 1.2 1-4.1 4.5c.6.8.5 1.9-.1 2.7 1 1 2.1 1.9 3.2 2.6zm-8.4-13.1V297c-1.1-.3-1.8-1.3-1.8-2.4 0-1.1.8-2.1 1.8-2.4v-5.3h1.6v5.3c.8.3 1.4.8 1.7 1.6h4.4v1.5h-4.4c-.3.7-.9 1.3-1.6 1.6v3.9l-1.7.1m2.3 8.3c.4-.5 1.1-.5 1.6-.1s.5 1.1.1 1.5c-.4.4-1.1.5-1.6.1-.4-.3-.5-1-.1-1.5 0 .1 0 0 0 0zm-2.1-4.5l-1.7-.4-.2-4.3 1.7-.6v2.5c0 1 .1 1.9.2 2.8zm1.4-5.3l1.7.4s.1 2.7.1 2.1c0-.7.2 2.1.2 2.1l-1.7.6c-.2-.9-.2-1.8-.2-2.7l-.1-2.5zm5.6 13.7c1.4 1.1 3.1 2 4.8 2.6l.4-1.6c-1.4-.4-2.8-1.1-4-2l-1.2 1m-.8 1.4c1.5 1.1 3.1 2 4.8 2.5l-1.3 1.2c-1.4-.5-2.7-1.2-4-2l.5-1.7" class="st45"/>
  <path d="M221.9 305.1l1.6.7 2.9-3.3-1-1.4-3.5 4m-1.3-1l-1-1.4 2.9-3.3 1.6.7-3.5 4m-7.6-9.5c0-.6.5-1.1 1.1-1.1.6 0 1.1.5 1.1 1.1 0 .6-.5 1.1-1.1 1.1s-1.1-.5-1.1-1.1zm25.7 19.4l.8 1.4c1.4-.8 2.6-1.9 3.6-3.1.8.2 1.8.1 2.5-.5 1.1-.9 1.2-2.5.3-3.5l-.1-.1c.7-1.5 1.1-3.1 1.3-4.8h-1.6c-.1 1.4-.5 2.8-1.1 4.1-.5-.1-1 0-1.4.2l-4.1-4.5-1.2 1 4.1 4.5c-.6.8-.5 1.9.1 2.7-1 1-2 1.9-3.2 2.6zm8.4-13.1V297c1.1-.3 1.8-1.3 1.8-2.4 0-1.1-.8-2.1-1.8-2.4v-5.3h-1.6v5.3c-.8.3-1.4.8-1.7 1.6h-4.4v1.5h4.4c.3.7.9 1.3 1.6 1.6v3.9l1.7.1zm-2.3 8.3c-.4-.4-1.1-.5-1.6-.1-.4.3-.5 1-.2 1.4l.1.1c.4.4 1.1.5 1.6.1.4-.3.5-1 .1-1.5 0 .1 0 .1 0 0zm2.1-4.5l1.7-.4.2-4.3-1.7-.6v2.5c0 1-.1 1.9-.2 2.8zm-1.4-5.3l-1.7.4s-.1 2.7-.1 2.1c0-.7-.2 2.1-.2 2.1l1.7.6c.2-.9.2-1.8.2-2.7l.1-2.5m1.6-20.1v5.2h-1.6v-5.2c-.1 0-.2-.1-.4-.1l-6 6.8-1.2-1 6.1-6.9c-.1-.1-.1-.2-.1-.3h-4.5v-1.5h4.4c.3-1 1.3-1.7 2.5-1.7 1.4 0 2.6 1.1 2.6 2.5.1.9-.7 1.9-1.8 2.2zm-16 0v3.2h-1.6v-3.2c-.8-.2-1.4-.8-1.7-1.6h-4v-1.5h4c.3-1 1.3-1.7 2.5-1.7s2.2.7 2.5 1.7h4.1v1.5h-4.1c-.4.7-1 1.3-1.7 1.6zm8.8 33.8c-1.4 1.1-3.1 2-4.8 2.6l-.4-1.6c1.4-.4 2.8-1.1 4-2l1.2 1m.8 1.4c-1.5 1.1-3.1 2-4.8 2.5l1.3 1.2c1.4-.5 2.7-1.2 4-2l-.5-1.7m-27.4-31.4l-1.7.5v4.3l1.7.5v-5.3m1.7 0l1.7.5v4.3l-1.7.5v-5.3m30.5 0l-1.7.5v4.3l1.7.5v-5.3" class="st45"/>
  <path d="M247.1 283.1l1.7.5v4.3l-1.7.5v-5.3m-8.6 22l-1.6.7-2.9-3.3 1-1.4 3.5 4m1.3-1l1-1.4-2.9-3.3-1.6.7 3.5 4M221.6 284l1.6-.7 2.9 3.3-1 1.4-3.5-4m-1.3 1l-1 1.4 2.9 3.3 1.6-.7-3.5-4m18.5-1.1l-1.6-.7-2.9 3.3 1 1.4 3.5-4m1.2 1l1 1.4-2.9 3.3-1.6-.7 3.5-4m-20.3 9l.5-1.6h4.5l.5 1.6h-5.5m0 1.5l.5 1.6h4.5l.5-1.6h-5.5m-6.7-18.5c0-.6.5-1.1 1.1-1.1.6 0 1.1.5 1.1 1.1 0 .6-.5 1.1-1.1 1.1-.5 0-1.1-.5-1.1-1.1zm12.1.8l-.5 1.6h-4.5l-.5-1.6h5.5m.1-1.6l-.5-1.6h-4.5l-.5 1.6h5.5m20 18.5c0-.6.5-1.1 1.1-1.1.6 0 1.1.5 1.1 1.1 0 .6-.5 1.1-1.1 1.1-.6 0-1.1-.5-1.1-1.1zm-4.4-.7l-.5-1.6h-4.5l-.5 1.6h5.5m0 1.5l-.5 1.6h-4.5l-.5-1.6h5.5m-11.6 21.9c0-.6.5-1.1 1.1-1.1.6 0 1.1.5 1.1 1.1 0 .6-.5 1.1-1.1 1.1-.6-.1-1.1-.5-1.1-1.1zm1.9-7.8l1.7-.5v-4.3l-1.7-.5v5.3m-1.6 0l-1.7-.5v-4.3l1.7-.5v5.3m15.7-32.6c0-.6.5-1.1 1.1-1.1.6 0 1.1.5 1.1 1.1 0 .6-.5 1.1-1.1 1.1-.6 0-1.1-.5-1.1-1.1zm-16.1 0c0-.6.5-1.1 1.1-1.1.6 0 1.1.5 1.1 1.1 0 .6-.5 1.1-1.1 1.1-.6 0-1.1-.5-1.1-1.1zm6.3.8l.5 1.6h4.5l.5-1.6h-5.5m0-1.6l.5-1.6h4.5l.5 1.6h-5.5m-6 5l-1.7.5v4.3l1.7.5v-5.3m1.7 0l1.7.5v4.3l-1.7.5v-5.3" class="st45"/>
  <path d="M227.7 294.7c0-1.4 1.2-2.5 2.6-2.5 1.4 0 2.6 1.1 2.6 2.5s-1.2 2.5-2.6 2.5c-1.4-.1-2.6-1.2-2.6-2.5" class="st8"/>
  <path d="M230.9 229.7l.1-.6.1-.3s-1.5.1-2.4-.1c-.8-.2-1.5-.6-2.3-1.2-.8-.6-1.1-1-1.6-1.1-1.3-.2-2.3.4-2.3.4s1 .4 1.7 1.3 1.5 1.4 1.9 1.5c.6.2 2.6.1 3.1.1.5-.2 1.7 0 1.7 0" class="st46"/>
  <path d="M230.9 229.7l.1-.6.1-.3s-1.5.1-2.4-.1c-.8-.2-1.5-.6-2.3-1.2-.8-.6-1.1-1-1.6-1.1-1.3-.2-2.3.4-2.3.4s1 .4 1.7 1.3 1.5 1.4 1.9 1.5c.6.2 2.6.1 3.1.1.5-.2 1.7 0 1.7 0z" class="st9"/>
  <path fill="#ed72aa" stroke="#000" stroke-width=".374" d="M238.1 227.5s0 .7.1 1.4c.1.6-.2 1.2-.1 1.5.1.4.1.6.3.9.1.3.2.9.2.9s-.4-.3-.7-.5c-.3-.3-.6-.4-.6-.4s.1.7.1 1c0 .3.2.9.5 1.2.3.3.8.9 1 1.3.2.4.1 1.4.1 1.4s-.4-.7-.8-.9c-.4-.1-1.2-.6-1.2-.6s.8.8.8 1.5-.3 1.5-.3 1.5-.3-.7-.8-1.1c-.5-.4-1.1-.9-1.1-.9s.5 1.1.5 1.9c0 .8-.1 2.4-.1 2.4s-.4-.6-.8-.9c-.4-.3-.8-.6-1-.8-.1-.2.5.6.5 1.1.1.5.3 2.3 1.8 4.5.9 1.3 2.3 3.6 5.3 2.9 3-.8 1.9-4.8 1.3-6.6-.6-1.9-.9-3.9-.9-4.7 0-.7.6-2.9.5-3.3-.1-.4-.2-1.9.1-3.1.4-1.3.7-1.8.9-2.3.2-.5.4-.8.4-1.3.1-.5.1-1.3.1-1.3s.6 1 .7 1.4c.1.4.1 1.4.1 1.4s.1-1.1.9-1.6 1.8-1.1 2.1-1.4c.2-.3.3-.5.3-.5s-.1 1.8-.6 2.6c-.3.5-1.7 2-1.7 2s.7-.3 1.2-.3h.8s-.6.5-1.4 1.6c-.8 1.1-.4 1.2-1 2.1-.6.9-1 1-1.7 1.5-1 .8-.5 4.2-.3 4.7.1.5 1.9 4.6 2 5.6 0 1 .2 3.2-1.5 4.6-1.1.9-2.9.9-3.4 1.2-.4.3-1.2 1.1-1.2 2.8 0 1.7.6 2 1.1 2.4.5.4 1.1.2 1.3.5.1.3.2.5.4.7.2.2.4.4.3.8-.1.4-.9 1.2-1.1 1.8-.3.6-.8 2.1-.8 2.4 0 .2-.1 1 .2 1.3 0 0 .9 1 .3 1.2-.4.1-.8-.2-.9-.2-.5.1-.8.5-.9.4-.3-.1-.3-.2-.4-.7 0-.5 0-.7-.2-.7s-.3.2-.4.4c0 .3 0 .9-.3.9-.2 0-.6-.4-.8-.5-.2-.1-.8-.2-.8-.5s.3-.8.7-.9c.4-.1.7-.3.5-.5s-.5-.2-.7 0c-.2.2-.8 0-.7-.3 0-.3.1-.7.1-.8 0-.2-.4-.5.1-.8.6-.3.8.3 1.4.2.6-.1.8-.3 1-.6.2-.3.2-1-.2-1.4-.4-.4-.8-.5-.9-.8l-.3-.9s.1 1.1 0 1.3c-.1.2 0 .9 0 .9s-.4-.4-.7-.8c-.3-.3-.6-1.3-.6-1.3v1.3c0 .4.4.7.3.8-.1.1-.8-.7-1-.8-.2-.1-.7-.6-1-1-.2-.5-.4-1.1-.5-1.4-.1-.2-.2-1.3-.1-1.5.2-.4.4-1.1.4-1.1h-1.4c-.7 0-1.2-.2-1.5.3-.3.5-.1 1.5.2 2.8.4 1.3.6 1.9.5 2.1-.1.2-.6.8-.7.9-.2.1-.7.1-.9 0-.2-.1-.6-.3-1.2-.3H228c-.2-.1-.8-.4-1.1-.3-.3.1-.8.3-.6.7.2.6-.2.7-.5.7s-.5-.1-.9-.2c-.3-.1-.9 0-.8-.4.1-.4.2-.4.4-.7.2-.3.2-.5 0-.5s-.5-.1-.7.1c-.2.2-.5.5-.7.4-.2-.1-.4-.4-.4-1s-.6-1.2-.1-1.1c.6 0 1.4.5 1.5.1.1-.3.1-.5-.3-.8-.3-.3-.7-.4-.3-.7.4-.3.5-.3.7-.5.2-.2.4-.8.7-.6.6.3 0 .7.6 1.4s1 .9 2 .8c1-.1 1.3-.2 1.3-.5s-.1-.8-.1-1c0-.2.1-.9.1-.9s-.5.3-.6.6c-.1.3-.4.8-.4.8s-.1-.6-.1-1c0-.3.1-.8.1-.9 0-.3-.2-.9-.2-.9s-.2.7-.3.9c-.1.2-.2 1-.2 1s-.6-.6-.5-1.5c.1-.7-.1-1.7.1-2 .2-.3.7-1.6 2-1.6 1.2 0 2.2.1 2.7 0 .4 0 2-.3 2-.3s-2.9-1.5-3.5-1.9c-.6-.4-1.7-1.6-2-2.1-.3-.5-.6-1.5-.6-1.5s-.5 0-1 .3l-1.2.9c-.3.3-.7 1-.7 1s.1-.9.1-1.2c0-.3-.1-.8-.1-.8s-.3 1.2-1 1.7-1.4 1.1-1.4 1.1.1-.7.1-.8c0-.2.2-.9.2-.9s-.5.7-1.2.8c-.7.1-1.7.1-1.8.5-.1.4.2 1 0 1.3-.2.3-.5.5-.5.5s-.4-.3-.8-.4c-.4 0-.7.2-.7.2s-.3-.4-.2-.6c.1-.3.6-.6.5-.8-.1-.2-.6.1-.8.2-.3.1-.8.3-.8-.2.1-.4.2-.7.1-1-.1-.3-.1-.5.2-.6.2-.1 1.1 0 1.2-.2.1-.2-.2-.5-.8-.6-.6-.1-.8-.5-.5-.7.3-.3.4-.4.5-.6.1-.3.2-.7.7-.5.5.2.4.8.9 1 .5.2 1.8-.1 2.1-.2.3-.2 1.1-.8 1.4-1 .3-.1 1.5-1.1 1.5-1.1s-.7-.5-1-.8c-.3-.3-.8-.9-1-1-.2-.1-1.4-.6-1.8-.6-.4 0-1.7-.5-1.7-.5s.6-.2.8-.3c.2-.2.6-.5.8-.5h.3s-1.2-.1-1.4-.1c-.2-.1-.9-.5-1.2-.5-.3 0-.8.1-.8.1s.7-.5 1.3-.6c.6-.1 1.1-.1 1.1-.1s-.9-.3-1.1-.6c-.2-.3-.4-.8-.6-1-.2-.2-.3-.5-.6-.6-.3 0-.8.4-1.1.3-.3 0-.5-.2-.5-.6 0-.4 0-.3-.1-.5s-.5-.8-.1-.9c.4-.1 1.3.1 1.4-.1.1-.2-.5-.6-.8-.8-.4-.2-.9-.5-.6-.7.3-.3.6-.4.8-.6.2-.2.4-.9.7-.7.4.2.8 1.2 1.1 1.1.3-.1.3-.8.2-1.1-.1-.3 0-.9.3-.8.3.1.5.4.9.4s1.1-.1 1 .2c-.1.3-.3.7-.6 1-.3.3-.4 1-.2 1.4.2.4.7 1.1 1.1 1.4.4.3 1.2.5 1.8.8.5.3 1.7 1.3 2.1 1.4.4.1.8.3.8.3s.5-.2 1.1-.2c.6 0 2.1.1 2.6-.1s1.2-.6 1-1.1c-.2-.5-1.4-.9-1.3-1.3.1-.4.5-.4 1.3-.4.7 0 1.7.1 1.9-.9.2-1 .2-1.6-.8-1.8-1-.2-1.8-.3-2-1-.2-.7-.4-.9-.2-1.1.2-.2.6-.3 1.4-.4.8-.1 1.6-.1 1.9-.2.2-.2.3-.7.6-.9.3-.2 1.5-.4 1.5-.4s1.4.7 2.7 1.6c.8.7 1.8 1.9 1.8 1.9"/>
  <path d="M228.1 226.8s-.2-.5-.2-.6c0-.1-.1-.3-.1-.3s.8 0 .8.3-.3.3-.3.4l-.2.2"/>
  <path d="M228.1 226.8s-.2-.5-.2-.6c0-.1-.1-.3-.1-.3s.8 0 .8.3-.3.3-.3.4l-.2.2z" class="st5"/>
  <path d="M232 225.5l-.1-.4s.7 0 1.1.3c.5.4.9 1 .9 1-.1.1-.5-.3-.8-.4 0 0-.2.1-.4.1s-.3-.1-.4-.2v-.3l-.3-.1"/>
  <path d="M232 225.5l-.1-.4s.7 0 1.1.3c.5.4.9 1 .9 1-.1.1-.5-.3-.8-.4 0 0-.2.1-.4.1s-.3-.1-.4-.2v-.3l-.3-.1z" class="st16"/>
  <path d="M237.3 231.3s-.3-.5-.4-.6c-.1-.1-.2-.5-.2-.5" class="st5"/>
  <path d="M217.4 226.6s.5.3.8.4c.4.1.7.1.8.1s.2-.5.1-.9c-.2-1.2-1.2-1.4-1.2-1.4s.3.7.2 1c-.3.5-.7.8-.7.8" class="st46"/>
  <path d="M217.4 226.6s.5.3.8.4c.4.1.7.1.8.1s.2-.5.1-.9c-.2-1.2-1.2-1.4-1.2-1.4s.3.7.2 1c-.3.5-.7.8-.7.8z" class="st9"/>
  <path d="M215.2 227.6s-.4-.7-1.3-.6c-.9.1-1.4.8-1.4.8s1 0 1.2.1c.4.2.5.8.5.8s.5-.3.7-.5l.3-.6" class="st46"/>
  <path d="M215.2 227.6s-.4-.7-1.3-.6c-.9.1-1.4.8-1.4.8s1 0 1.2.1c.4.2.5.8.5.8s.5-.3.7-.5l.3-.6z" class="st9"/>
  <path d="M214.1 230.6s-.7.1-1.1.6c-.4.5-.4 1.3-.4 1.3s.5-.5.9-.5 1.1.2 1.1.2-.2-.5-.2-.8c.1-.2-.3-.8-.3-.8" class="st46"/>
  <path d="M214.1 230.6s-.7.1-1.1.6c-.4.5-.4 1.3-.4 1.3s.5-.5.9-.5 1.1.2 1.1.2-.2-.5-.2-.8c.1-.2-.3-.8-.3-.8z" class="st9"/>
  <path d="M228.2 230.5l.3-.5.3.5h-.6"/>
  <path d="M228.2 230.5l.3-.5.3.5h-.6" class="st5"/>
  <path d="M228.9 230.5l.4-.5.4.5h-.8"/>
  <path d="M228.9 230.5l.4-.5.4.5h-.8" class="st5"/>
  <path d="M228.6 227.4l.8.3-.7.4-.1-.7"/>
  <path d="M228.6 227.4l.8.3-.7.4-.1-.7" class="st5"/>
  <path d="M229.5 227.6l.7.2-.6.4-.1-.6"/>
  <path d="M229.5 227.6l.7.2-.6.4-.1-.6" class="st5"/>
  <path d="M224.2 233.7s-.8.2-1.1.6c-.4.5-.3 1-.3 1s.6-.5 1.5-.3c.8.2.9.3 1.3.3s1.2-.3 1.2-.3-.7.8-.6 1.4c.1.6.2.8.2 1.1-.1.7-.6 1.5-.6 1.5s.3-.2 1-.3c.6-.1 1.2-.4 1.7-.8.4-.3.9-1 .9-1s-.2 1 0 1.4c.2.4.2 1.6.2 1.6s.5-.4.8-.6c.2-.1.7-.4.9-.7.1-.2.3-1 .3-1s.1.9.4 1.3c.3.4.7 1.7.7 1.7s.3-.8.6-1.2c.3-.3.7-.8.7-1 0-.3-.1-.8-.1-.8l.4.8m-11.1.5s.5-.8.9-1.1c.4-.3 1-.7 1.2-.8.2-.1.9-.4.9-.4m.9 5l1.4-.7c.6-.4 1.1-1.1 1.1-1.1" class="st9"/>
  <path d="M216.6 240.4s-.4-.4-1.1-.3c-.7.1-1.2.9-1.2.9s.6-.2.9-.1c.4.1.6.4.6.4l.4-.4c.2-.2.4-.5.4-.5" class="st46"/>
  <path d="M216.6 240.4s-.4-.4-1.1-.3c-.7.1-1.2.9-1.2.9s.6-.2.9-.1c.4.1.6.4.6.4l.4-.4c.2-.2.4-.5.4-.5z" class="st9"/>
  <path d="M215.8 243.2s-.6-.1-1.1.3c-.5.4-.5 1.2-.5 1.2s.5-.4.9-.4.8.3.8.3.1-.5.1-.6c0-.4-.2-.8-.2-.8" class="st46"/>
  <path d="M215.8 243.2s-.6-.1-1.1.3c-.5.4-.5 1.2-.5 1.2s.5-.4.9-.4.8.3.8.3.1-.5.1-.6c0-.4-.2-.8-.2-.8z" class="st9"/>
  <path d="M217.2 245.8s0 .8.3 1.2c.4.5 1.1.6 1.1.6s-.2-.5-.3-.8c-.1-.4.3-.7.3-.7s-.4-.4-.7-.4c-.3.1-.7.1-.7.1" class="st46"/>
  <path d="M217.2 245.8s0 .8.3 1.2c.4.5 1.1.6 1.1.6s-.2-.5-.3-.8c-.1-.4.3-.7.3-.7s-.4-.4-.7-.4c-.3.1-.7.1-.7.1zm16 1.3s2 1.2 1.9 2.2c-.1 1-1.1 2.3-1.1 2.3" class="st9"/>
  <path d="M224.2 252.6s-.5-.6-1.2-.6-1.4.7-1.4.7.8-.1 1.1.2l.4.6s.4-.2.5-.3c.3-.1.6-.6.6-.6" class="st46"/>
  <path d="M224.2 252.6s-.5-.6-1.2-.6-1.4.7-1.4.7.8-.1 1.1.2l.4.6s.4-.2.5-.3c.3-.1.6-.6.6-.6z" class="st9"/>
  <path d="M222.2 255.3s-.9-.1-1.3.3c-.4.5-.4 1.3-.4 1.3s.5-.6 1-.5c.5.1 1 .3 1 .3s-.1-.5-.1-.7-.2-.7-.2-.7" class="st46"/>
  <path d="M222.2 255.3s-.9-.1-1.3.3c-.4.5-.4 1.3-.4 1.3s.5-.6 1-.5c.5.1 1 .3 1 .3s-.1-.5-.1-.7-.2-.7-.2-.7z" class="st9"/>
  <path d="M224.1 258.1s-.4.6-.1 1.1c.3.5 1 .7 1 .7s-.2-.4-.1-.8c.1-.3.6-.8.6-.8l-1.4-.2" class="st46"/>
  <path d="M224.1 258.1s-.4.6-.1 1.1c.3.5 1 .7 1 .7s-.2-.4-.1-.8c.1-.3.6-.8.6-.8l-1.4-.2z" class="st9"/>
  <path d="M236 259.3s-.8-.2-1.2.1c-.4.3-.8 1.3-.8 1.3s.7-.6 1.2-.5c.5.1.9.3.9.3s.1-.4 0-.7c0-.2-.1-.5-.1-.5" class="st46"/>
  <path d="M236 259.3s-.8-.2-1.2.1c-.4.3-.8 1.3-.8 1.3s.7-.6 1.2-.5c.5.1.9.3.9.3s.1-.4 0-.7c0-.2-.1-.5-.1-.5z" class="st9"/>
  <path d="M236.4 262.2s-.6.6-.4 1.1c.2.5.6 1.1.6 1.1s0-.8.2-1c.4-.3 1-.4 1-.4s-.5-.5-.7-.5c-.2-.1-.5-.2-.7-.3" class="st46"/>
  <path d="M236.4 262.2s-.6.6-.4 1.1c.2.5.6 1.1.6 1.1s0-.8.2-1c.4-.3 1-.4 1-.4s-.5-.5-.7-.5c-.2-.1-.5-.2-.7-.3z" class="st9"/>
  <path d="M239.4 263.1s-.3.7.3 1.2 1.1.5 1.1.5-.4-.8-.3-1.2c.1-.4.5-.7.5-.7s-.7-.2-.8-.2l-.8.4" class="st46"/>
  <path d="M239.4 263.1s-.3.7.3 1.2 1.1.5 1.1.5-.4-.8-.3-1.2c.1-.4.5-.7.5-.7s-.7-.2-.8-.2l-.8.4z" class="st9"/>
  <path fill="#ffd691" stroke="#000" stroke-width=".499" d="M208.8 316.4c2 .6 3 2.1 3 3.9 0 2.3-2.2 4-5.1 4-2.9 0-5.2-1.7-5.2-4 0-1.7 1-3.6 3-3.8 0 0-.1-.2-.2-.5l-.6-.6s.8-.1 1.2 0c.4.2.7.4.7.4s.2-.4.5-.7c.3-.3.7-.5.7-.5l.6.6.2.6s.4-.3.8-.5l.8-.2s-.1.4-.2.7c-.2.1-.2.6-.2.6"/>
  <path d="M206.3 326.7s-3.8-2.6-5.5-2.9c-2.1-.4-4.5-.1-5.5-.1 0 0 1.2.9 1.8 1.4.5.5 2.3 1.6 3.3 1.8 3.1.8 5.9-.2 5.9-.2m1.1.2s2.4-2.5 5-2.9c3-.4 5 .2 6.2.6 0 0-1 .5-1.5.8-.5.4-1.9 1.5-4 1.5s-4.4-.2-4.8-.2c-.3.1-.9.2-.9.2" class="st49"/>
  <path fill="#ad1519" stroke="#000" stroke-width=".499" d="M206.7 323.8c-2-1.8-2.1-4.9-.3-6.9l.3-.3c1 .9 1.6 2.2 1.6 3.6-.1 1.4-.6 2.7-1.6 3.6"/>
  <path d="M205.7 329s.6-1.5.6-2.7c.1-1-.1-2.1-.1-2.1h.8s.4 1.1.4 2.1-.2 2.3-.2 2.3-.5.1-.7.2c-.2 0-.8.2-.8.2" class="st49"/>
  <path d="M254 190.7c0-.6.5-1 1.1-1 .6 0 1.1.4 1.1 1s-.5 1-1.1 1c-.6 0-1.1-.4-1.1-1" class="st7"/>
  <path d="M254 190.7c0-.6.5-1 1.1-1 .6 0 1.1.4 1.1 1s-.5 1-1.1 1c-.6 0-1.1-.4-1.1-1z" class="st9"/>
  <path d="M255.4 188.2c0-.6.5-1 1.1-1 .6 0 1 .4 1 1s-.5 1-1 1c-.6 0-1.1-.5-1.1-1" class="st7"/>
  <path d="M255.4 188.2c0-.6.5-1 1.1-1 .6 0 1 .4 1 1s-.5 1-1 1c-.6 0-1.1-.5-1.1-1z" class="st9"/>
  <path d="M256.4 185.2c0-.6.5-1 1.1-1 .6 0 1 .4 1 1s-.5 1-1 1c-.6 0-1.1-.4-1.1-1" class="st7"/>
  <path d="M256.4 185.2c0-.6.5-1 1.1-1 .6 0 1 .4 1 1s-.5 1-1 1c-.6 0-1.1-.4-1.1-1z" class="st9"/>
  <path d="M256.5 182.1c0-.6.5-1 1-1s1 .4 1 1-.5 1-1 1-1-.5-1-1" class="st7"/>
  <path d="M256.5 182.1c0-.6.5-1 1-1s1 .4 1 1-.5 1-1 1-1-.5-1-1z" class="st9"/>
  <path d="M255.7 178.9c0-.6.5-1 1.1-1 .6 0 1.1.4 1.1 1s-.5 1-1.1 1c-.6 0-1.1-.4-1.1-1" class="st7"/>
  <path d="M255.7 178.9c0-.6.5-1 1.1-1 .6 0 1.1.4 1.1 1s-.5 1-1.1 1c-.6 0-1.1-.4-1.1-1z" class="st9"/>
  <path d="M254.1 176.1c0-.6.5-1 1.1-1 .6 0 1.1.4 1.1 1s-.5 1-1.1 1c-.6 0-1.1-.4-1.1-1" class="st7"/>
  <path d="M254.1 176.1c0-.6.5-1 1.1-1 .6 0 1.1.4 1.1 1s-.5 1-1.1 1c-.6 0-1.1-.4-1.1-1z" class="st9"/>
  <path d="M252 173.8c0-.6.5-1 1.1-1 .6 0 1.1.4 1.1 1s-.5 1-1.1 1c-.7 0-1.1-.5-1.1-1" class="st7"/>
  <path d="M252 173.8c0-.6.5-1 1.1-1 .6 0 1.1.4 1.1 1s-.5 1-1.1 1c-.7 0-1.1-.5-1.1-1z" class="st9"/>
  <path d="M249.5 171.9c0-.6.5-1 1.1-1 .6 0 1.1.4 1.1 1 0 .5-.5 1-1.1 1-.7-.1-1.1-.5-1.1-1" class="st7"/>
  <path d="M249.5 171.9c0-.6.5-1 1.1-1 .6 0 1.1.4 1.1 1 0 .5-.5 1-1.1 1-.7-.1-1.1-.5-1.1-1z" class="st9"/>
  <path d="M246.5 170.3c0-.6.5-1 1.1-1 .6 0 1.1.4 1.1 1s-.5 1-1.1 1c-.7 0-1.1-.5-1.1-1" class="st7"/>
  <path d="M246.5 170.3c0-.6.5-1 1.1-1 .6 0 1.1.4 1.1 1s-.5 1-1.1 1c-.7 0-1.1-.5-1.1-1z" class="st9"/>
  <path d="M243.3 169.1c0-.5.5-1 1.1-1 .6 0 1.1.4 1.1 1s-.5 1-1.1 1c-.6 0-1.1-.4-1.1-1" class="st7"/>
  <path d="M243.3 169.1c0-.5.5-1 1.1-1 .6 0 1.1.4 1.1 1s-.5 1-1.1 1c-.6 0-1.1-.4-1.1-1z" class="st9"/>
  <path d="M239.9 168.5c0-.5.5-1 1.1-1 .6 0 1.1.4 1.1 1s-.5 1-1.1 1c-.7 0-1.1-.4-1.1-1" class="st7"/>
  <path d="M239.9 168.5c0-.5.5-1 1.1-1 .6 0 1.1.4 1.1 1s-.5 1-1.1 1c-.7 0-1.1-.4-1.1-1z" class="st9"/>
  <path d="M236.6 168.3c0-.6.5-1 1.1-1 .6 0 1.1.4 1.1 1s-.5 1-1.1 1c-.7 0-1.1-.4-1.1-1" class="st7"/>
  <path d="M236.6 168.3c0-.6.5-1 1.1-1 .6 0 1.1.4 1.1 1s-.5 1-1.1 1c-.7 0-1.1-.4-1.1-1z" class="st9"/>
  <path d="M233.3 168.5c0-.6.5-1 1.1-1 .6 0 1.1.4 1.1 1s-.5 1-1.1 1c-.6 0-1.1-.5-1.1-1" class="st7"/>
  <path d="M233.3 168.5c0-.6.5-1 1.1-1 .6 0 1.1.4 1.1 1s-.5 1-1.1 1c-.6 0-1.1-.5-1.1-1z" class="st9"/>
  <path d="M230.1 168.5c0-.6.5-1 1.1-1s1.1.4 1.1 1-.5 1-1.1 1c-.6 0-1.1-.5-1.1-1" class="st7"/>
  <path d="M230.1 168.5c0-.6.5-1 1.1-1s1.1.4 1.1 1-.5 1-1.1 1c-.6 0-1.1-.5-1.1-1z" class="st9"/>
  <path d="M231.7 171.2c0-.6.5-1 1.1-1 .6 0 1.1.4 1.1 1s-.5 1-1.1 1c-.6 0-1.1-.4-1.1-1m.7 3.1c0-.6.5-1 1.1-1 .6 0 1.1.4 1.1 1 0 .5-.5 1-1.1 1-.7 0-1.1-.4-1.1-1m.1 3.1c0-.6.5-1 1.1-1 .6 0 1.1.4 1.1 1 0 .5-.5 1-1.1 1-.6 0-1.1-.5-1.1-1m-1 2.7c0-.6.5-1 1.1-1 .6 0 1.1.4 1.1 1s-.5 1-1.1 1c-.6 0-1.1-.4-1.1-1m-1.8 2.6c0-.6.5-1 1.1-1 .6 0 1.1.4 1.1 1s-.5 1-1.1 1-1.1-.4-1.1-1" class="st36"/>
  <path d="M227.6 166.5c0-.6.5-1 1.1-1 .6 0 1.1.4 1.1 1s-.5 1-1.1 1c-.6 0-1.1-.4-1.1-1" class="st7"/>
  <path d="M227.6 166.5c0-.6.5-1 1.1-1 .6 0 1.1.4 1.1 1s-.5 1-1.1 1c-.6 0-1.1-.4-1.1-1z" class="st9"/>
  <path d="M224.8 164.9c0-.5.5-1 1.1-1 .6 0 1.1.4 1.1 1s-.5 1-1.1 1c-.7 0-1.1-.4-1.1-1" class="st7"/>
  <path d="M224.8 164.9c0-.5.5-1 1.1-1 .6 0 1.1.4 1.1 1s-.5 1-1.1 1c-.7 0-1.1-.4-1.1-1z" class="st9"/>
  <path d="M221.6 164c0-.6.5-1 1.1-1 .6 0 1.1.4 1.1 1s-.5 1-1.1 1-1.1-.5-1.1-1" class="st7"/>
  <path d="M221.6 164c0-.6.5-1 1.1-1 .6 0 1.1.4 1.1 1s-.5 1-1.1 1-1.1-.5-1.1-1z" class="st9"/>
  <path d="M218.3 163.4c0-.6.5-1 1.1-1 .6 0 1.1.4 1.1 1 0 .5-.5 1-1.1 1-.6 0-1.1-.4-1.1-1" class="st7"/>
  <path d="M218.3 163.4c0-.6.5-1 1.1-1 .6 0 1.1.4 1.1 1 0 .5-.5 1-1.1 1-.6 0-1.1-.4-1.1-1z" class="st9"/>
  <path d="M215.1 163.5c0-.5.5-1 1.1-1 .6 0 1.1.5 1.1 1 0 .6-.5 1-1.1 1-.7 0-1.1-.5-1.1-1" class="st7"/>
  <path d="M215.1 163.5c0-.5.5-1 1.1-1 .6 0 1.1.5 1.1 1 0 .6-.5 1-1.1 1-.7 0-1.1-.5-1.1-1z" class="st9"/>
  <path d="M211.7 164c0-.5.5-1 1.1-1 .6 0 1.1.4 1.1 1s-.5 1-1.1 1c-.6 0-1.1-.4-1.1-1" class="st7"/>
  <path d="M211.7 164c0-.5.5-1 1.1-1 .6 0 1.1.4 1.1 1s-.5 1-1.1 1c-.6 0-1.1-.4-1.1-1z" class="st9"/>
  <path d="M208.6 165.1c0-.6.5-1 1.1-1 .6 0 1.1.4 1.1 1 0 .5-.5 1-1.1 1-.6 0-1.1-.4-1.1-1" class="st7"/>
  <path d="M208.6 165.1c0-.6.5-1 1.1-1 .6 0 1.1.4 1.1 1 0 .5-.5 1-1.1 1-.6 0-1.1-.4-1.1-1z" class="st9"/>
  <path d="M155.9 190.7c0-.6.5-1 1.1-1 .6 0 1.1.4 1.1 1s-.5 1-1.1 1c-.6 0-1.1-.4-1.1-1" class="st7"/>
  <path d="M155.9 190.7c0-.6.5-1 1.1-1 .6 0 1.1.4 1.1 1s-.5 1-1.1 1c-.6 0-1.1-.4-1.1-1z" class="st9"/>
  <path d="M154.5 188.2c0-.6.5-1 1.1-1 .6 0 1.1.4 1.1 1s-.5 1-1.1 1c-.6 0-1.1-.5-1.1-1" class="st7"/>
  <path d="M154.5 188.2c0-.6.5-1 1.1-1 .6 0 1.1.4 1.1 1s-.5 1-1.1 1c-.6 0-1.1-.5-1.1-1z" class="st9"/>
  <path d="M153.5 185.2c0-.6.5-1 1.1-1 .6 0 1.1.4 1.1 1s-.5 1-1.1 1c-.6 0-1.1-.4-1.1-1" class="st7"/>
  <path d="M153.5 185.2c0-.6.5-1 1.1-1 .6 0 1.1.4 1.1 1s-.5 1-1.1 1c-.6 0-1.1-.4-1.1-1z" class="st9"/>
  <path d="M153.4 182.1c0-.6.5-1 1.1-1 .6 0 1.1.4 1.1 1s-.5 1-1.1 1c-.6 0-1.1-.5-1.1-1" class="st7"/>
  <path d="M153.4 182.1c0-.6.5-1 1.1-1 .6 0 1.1.4 1.1 1s-.5 1-1.1 1c-.6 0-1.1-.5-1.1-1z" class="st9"/>
  <path d="M154.2 178.9c0-.6.5-1 1.1-1s1.1.4 1.1 1-.5 1-1.1 1-1.1-.4-1.1-1" class="st7"/>
  <path d="M154.2 178.9c0-.6.5-1 1.1-1s1.1.4 1.1 1-.5 1-1.1 1-1.1-.4-1.1-1z" class="st9"/>
  <path d="M155.8 176.1c0-.6.5-1 1.1-1 .6 0 1.1.4 1.1 1s-.5 1-1.1 1c-.6 0-1.1-.4-1.1-1" class="st7"/>
  <path d="M155.8 176.1c0-.6.5-1 1.1-1 .6 0 1.1.4 1.1 1s-.5 1-1.1 1c-.6 0-1.1-.4-1.1-1z" class="st9"/>
  <path d="M158 173.8c0-.6.5-1 1.1-1 .6 0 1.1.4 1.1 1s-.5 1-1.1 1c-.7 0-1.1-.5-1.1-1" class="st7"/>
  <path d="M158 173.8c0-.6.5-1 1.1-1 .6 0 1.1.4 1.1 1s-.5 1-1.1 1c-.7 0-1.1-.5-1.1-1z" class="st9"/>
  <path d="M160.5 171.9c0-.6.5-1 1.1-1 .6 0 1.1.4 1.1 1 0 .5-.5 1-1.1 1-.7-.1-1.1-.5-1.1-1" class="st7"/>
  <path d="M160.5 171.9c0-.6.5-1 1.1-1 .6 0 1.1.4 1.1 1 0 .5-.5 1-1.1 1-.7-.1-1.1-.5-1.1-1z" class="st9"/>
  <path d="M163.5 170.3c0-.6.5-1 1.1-1 .6 0 1.1.4 1.1 1s-.5 1-1.1 1c-.7 0-1.1-.5-1.1-1" class="st7"/>
  <path d="M163.5 170.3c0-.6.5-1 1.1-1 .6 0 1.1.4 1.1 1s-.5 1-1.1 1c-.7 0-1.1-.5-1.1-1z" class="st9"/>
  <path d="M166.6 169.1c0-.5.5-1 1.1-1 .6 0 1.1.4 1.1 1s-.5 1-1.1 1c-.6 0-1.1-.4-1.1-1" class="st7"/>
  <path d="M166.6 169.1c0-.5.5-1 1.1-1 .6 0 1.1.4 1.1 1s-.5 1-1.1 1c-.6 0-1.1-.4-1.1-1z" class="st9"/>
  <path d="M170.1 168.5c0-.5.5-1 1.1-1 .6 0 1.1.4 1.1 1s-.5 1-1.1 1c-.7 0-1.1-.4-1.1-1" class="st7"/>
  <path d="M170.1 168.5c0-.5.5-1 1.1-1 .6 0 1.1.4 1.1 1s-.5 1-1.1 1c-.7 0-1.1-.4-1.1-1z" class="st9"/>
  <path d="M173.4 168.3c0-.6.5-1 1.1-1 .6 0 1.1.4 1.1 1s-.5 1-1.1 1c-.7 0-1.1-.4-1.1-1" class="st7"/>
  <path d="M173.4 168.3c0-.6.5-1 1.1-1 .6 0 1.1.4 1.1 1s-.5 1-1.1 1c-.7 0-1.1-.4-1.1-1z" class="st9"/>
  <path d="M176.6 168.5c0-.6.5-1 1.1-1 .6 0 1.1.4 1.1 1s-.5 1-1.1 1c-.6 0-1.1-.5-1.1-1" class="st7"/>
  <path d="M176.6 168.5c0-.6.5-1 1.1-1 .6 0 1.1.4 1.1 1s-.5 1-1.1 1c-.6 0-1.1-.5-1.1-1z" class="st9"/>
  <path d="M179.8 168.5c0-.6.5-1 1.1-1 .6 0 1.1.4 1.1 1s-.5 1-1.1 1c-.6 0-1.1-.5-1.1-1" class="st7"/>
  <path d="M179.8 168.5c0-.6.5-1 1.1-1 .6 0 1.1.4 1.1 1s-.5 1-1.1 1c-.6 0-1.1-.5-1.1-1z" class="st9"/>
  <path d="M178.2 171.2c0-.6.5-1 1.1-1 .6 0 1.1.4 1.1 1s-.5 1-1.1 1c-.6 0-1.1-.4-1.1-1m-.6 3.1c0-.6.5-1 1.1-1 .6 0 1.1.4 1.1 1 0 .5-.5 1-1.1 1-.7 0-1.1-.4-1.1-1m-.2 3.1c0-.6.5-1 1.1-1 .6 0 1.1.4 1.1 1 0 .5-.5 1-1.1 1-.6 0-1.1-.5-1.1-1m1 2.7c0-.6.5-1 1.1-1 .6 0 1.1.4 1.1 1s-.5 1-1.1 1c-.6 0-1.1-.4-1.1-1m1.8 2.6c0-.6.5-1 1.1-1 .6 0 1.1.4 1.1 1s-.5 1-1.1 1c-.6 0-1.1-.4-1.1-1" class="st36"/>
  <path d="M182.3 166.5c0-.6.5-1 1.1-1 .6 0 1.1.4 1.1 1s-.5 1-1.1 1c-.6 0-1.1-.4-1.1-1" class="st7"/>
  <path d="M182.3 166.5c0-.6.5-1 1.1-1 .6 0 1.1.4 1.1 1s-.5 1-1.1 1c-.6 0-1.1-.4-1.1-1z" class="st9"/>
  <path d="M185.2 164.9c0-.5.5-1 1.1-1 .6 0 1.1.4 1.1 1s-.5 1-1.1 1c-.7 0-1.1-.4-1.1-1" class="st7"/>
  <path d="M185.2 164.9c0-.5.5-1 1.1-1 .6 0 1.1.4 1.1 1s-.5 1-1.1 1c-.7 0-1.1-.4-1.1-1z" class="st9"/>
  <path d="M188.3 164c0-.6.5-1 1.1-1 .6 0 1.1.4 1.1 1s-.5 1-1.1 1c-.6 0-1.1-.5-1.1-1" class="st7"/>
  <path d="M188.3 164c0-.6.5-1 1.1-1 .6 0 1.1.4 1.1 1s-.5 1-1.1 1c-.6 0-1.1-.5-1.1-1z" class="st9"/>
  <path d="M191.6 163.4c0-.6.5-1 1.1-1 .6 0 1.1.4 1.1 1 0 .5-.5 1-1.1 1-.6 0-1.1-.4-1.1-1" class="st7"/>
  <path d="M191.6 163.4c0-.6.5-1 1.1-1 .6 0 1.1.4 1.1 1 0 .5-.5 1-1.1 1-.6 0-1.1-.4-1.1-1z" class="st9"/>
  <path d="M194.9 163.5c0-.5.5-1 1.1-1 .6 0 1.1.5 1.1 1 0 .6-.5 1-1.1 1-.7 0-1.1-.5-1.1-1" class="st7"/>
  <path d="M194.9 163.5c0-.5.5-1 1.1-1 .6 0 1.1.5 1.1 1 0 .6-.5 1-1.1 1-.7 0-1.1-.5-1.1-1z" class="st9"/>
  <path d="M198.2 164c0-.5.5-1 1.1-1 .6 0 1.1.4 1.1 1s-.5 1-1.1 1c-.6 0-1.1-.4-1.1-1" class="st7"/>
  <path d="M198.2 164c0-.5.5-1 1.1-1 .6 0 1.1.4 1.1 1s-.5 1-1.1 1c-.6 0-1.1-.4-1.1-1z" class="st9"/>
  <path d="M201.3 165.1c0-.6.5-1 1.1-1 .6 0 1.1.4 1.1 1 0 .5-.5 1-1.1 1-.6 0-1.1-.4-1.1-1" class="st7"/>
  <path d="M201.3 165.1c0-.6.5-1 1.1-1 .6 0 1.1.4 1.1 1 0 .5-.5 1-1.1 1-.6 0-1.1-.4-1.1-1z" class="st9"/>
  <path d="M174.6 228.9h-.9v-.9h-1.6v3.6h1.6v2.4h-3.3v7.1h1.8v14.2h-3.6v7.3h27.3v-7.3h-3.6v-14.2h1.8V234h-3.3v-2.4h1.6V228h-1.6v.9h-.8v-.9h-1.6v.9h-1.1v-.9h-1.6v3.6h1.6v2.4H184v-7.8h1.8v-3.6H184v.9h-.9v-.9h-1.6v.9h-.9v-.9h-1.8v3.6h1.8v7.8h-3.3v-2.4h1.6V228h-1.6v.9h-.9v-.9h-1.8v.9zm-5.9 33.7H196m-27.3-1.8H196m-27.3-1.8H196m-27.3-1.7H196m-27.3-2H196m-23.8-1.6h20.2m-20.2-1.8h20.2m-20.2-2h20.2m-20.2-1.7h20.2m-20.2-1.8h20.2m-20.2-1.8h20.2m-20.2-1.8h20.2m-22-1.7h23.7m-23.7-1.8h23.7m-23.7-1.8h23.7m-23.7-1.8h23.7m-20.3-1.7h17.1m-10.3-1.8h3.3m-3.3-1.8h3.3m-3.3-1.7h3.3m-3.3-1.8h3.3m-5-2.2h6.9m-12 7.5h3.6m-5.2-2.2h6.7m-6.7 32.6v-1.8m0-1.8v-1.8m-1.8 1.8v1.8m3.4 0V259m1.7 3.6v-1.8m0-1.8v-1.8m0-1.9v-1.6m0-1.8v-2m-1.7 7.4v-2m-3.4 2v-2m6.9 0v2m1.6-2v-1.6m-5.1-1.8v1.8m3.5-1.8v1.8m3.3-1.8v1.8m-1.7-1.8v-2m1.7-1.7v1.8m0-5.4v1.8m-1.7-3.6v1.8m1.7-3.5v1.8m-3.3-1.8v1.8m-3.5-1.8v1.8m-1.6-3.6v1.8m3.3-1.8v1.8m3.4-1.8v1.8m1.7-3.6v1.8m-3.3-1.8v1.8m-3.5-1.8v1.8m-1.6-3.6v1.8m6.7-1.8v1.8m-3.4-5.3v1.8m15.3-1.8h-3.5m5.1-2.2h-6.7m6.7 32.6v-1.8m0-1.8v-1.8m1.8 1.8v1.8m-3.4 0V259m-1.7 3.6v-1.8m0-1.8v-1.8m0-1.9v-1.6m0-1.8v-2m1.7 7.4v-2m3.4 2v-2m-6.9 0v2m-1.6-2v-1.6m5.1-1.8v1.8m-3.5-1.8v1.8m-3.3-1.8v1.8m1.7-1.8v-2m-1.7-1.7v1.8m0-5.4v1.8m1.7-3.6v1.8m-1.7-3.5v1.8m3.3-1.8v1.8m3.5-1.8v1.8m1.6-3.6v1.8m-3.3-1.8v1.8m-3.4-1.8v1.8m-1.7-3.6v1.8m3.3-1.8v1.8m3.5-1.8v1.8m1.6-3.6v1.8m-6.7-1.8v1.8m3.4-5.3v1.8m-6.9 17.9v-2m0-5.3v-1.8m0 5.4v-1.8m0-5.3v-1.8m0-1.8v-1.8m0-3.5v-1.8m0-1.7v-1.8m-8.4 4.6h3.6m3.2-5.3h3.3m3.4 5.3h3.6" class="st51"/>
  <path d="M186.8 262.6v-4.7c0-.9-.4-3.5-4.7-3.5-4 0-4.4 2.7-4.4 3.5v4.7h9.1z" class="st51"/>
  <path d="M179.3 258.2l-2.2-.2c0-.9.2-2.2.9-2.7l2 1.6c-.3.1-.7.8-.7 1.3zm6 0l2.2-.2c0-.9-.2-2.2-.9-2.7l-2 1.6c.2.1.7.8.7 1.3zm-2.2-2.3l1.1-2c-.4-.2-1.3-.4-2-.4-.4 0-1.3.2-1.8.4l1.1 2h1.6zm-4.2-5.5v-4.9c0-1.3-.9-2.4-2.4-2.4s-2.4 1.1-2.4 2.4v4.9h4.8zm6.8 0v-4.9c0-1.3.9-2.4 2.4-2.4 1.6 0 2.4 1.1 2.4 2.4v4.9h-4.8zm-1.7-12l.4-4.4h-4.2l.2 4.4h3.6zm3.3 0l-.4-4.4h4.4l-.4 4.4h-3.6zm-10 0l.2-4.4h-4.2l.4 4.4h3.6z" class="st51"/>
  <path fill="#0039f0" d="M185.3 262.6v-4c0-.7-.4-2.7-3.1-2.7-2.4 0-2.9 2-2.9 2.7v4h6zm-6.9-12.7v-4.2c0-1.1-.7-2.2-2-2.2s-2 1.1-2 2.2v4.2h4zm7.8 0v-4.2c0-1.1.7-2.2 2-2.2s2 1.1 2 2.2v4.2h-4z"/>
  <path d="M190.8 269.8c0-9.7 7-17.6 15.6-17.6s15.6 7.9 15.6 17.6-7 17.6-15.6 17.6c-8.6-.1-15.6-7.9-15.6-17.6" class="st2"/>
  <path d="M190.8 269.8c0-9.7 7-17.6 15.6-17.6s15.6 7.9 15.6 17.6-7 17.6-15.6 17.6c-8.6-.1-15.6-7.9-15.6-17.6z" class="st53"/>
  <path d="M195.4 269.7c0-7.1 4.9-12.9 11-12.9s11 5.8 11 12.9c0 7.1-4.9 12.9-11 12.9s-11-5.8-11-12.9" class="st11"/>
  <path d="M195.4 269.7c0-7.1 4.9-12.9 11-12.9s11 5.8 11 12.9c0 7.1-4.9 12.9-11 12.9s-11-5.8-11-12.9z" class="st53"/>
  <path d="M201.2 260.9s-1.3 1.4-1.3 2.8c0 1.3.6 2.4.6 2.4-.2-.5-.7-.9-1.4-.9-.8 0-1.4.6-1.4 1.4 0 .2.1.6.2.7l.5.9c.2-.3.5-.5.9-.5.6 0 1 .4 1 1v.2h-1.2v1h1l-.8 1.5 1-.4.8.9.8-.9 1 .4-.8-1.5h1v-1h-1.2v-.2c0-.5.5-1 1-1 .4 0 .8.2.9.5l.5-.9c.1-.2.2-.5.2-.7 0-.8-.6-1.4-1.4-1.4-.6 0-1.2.4-1.4.9 0 0 .5-1.1.5-2.4.4-1.4-1-2.8-1-2.8" class="st4"/>
  <path d="M201.2 260.9s-1.3 1.4-1.3 2.8c0 1.3.6 2.4.6 2.4-.2-.5-.7-.9-1.4-.9-.8 0-1.4.6-1.4 1.4 0 .2.1.6.2.7l.5.9c.2-.3.5-.5.9-.5.6 0 1 .4 1 1v.2h-1.2v1h1l-.8 1.5 1-.4.8.9.8-.9 1 .4-.8-1.5h1v-1h-1.2v-.2c0-.5.5-1 1-1 .4 0 .8.2.9.5l.5-.9c.1-.2.2-.5.2-.7 0-.8-.6-1.4-1.4-1.4-.6 0-1.2.4-1.4.9 0 0 .5-1.1.5-2.4.4-1.4-1-2.8-1-2.8z" class="st54"/>
  <path d="M199.2 269.9h4.2v-1h-4.2v1z" class="st4"/>
  <path d="M199.2 269.9h4.2v-1h-4.2v1z" class="st55"/>
  <path d="M211.4 260.9s-1.3 1.4-1.3 2.8c0 1.3.5 2.4.5 2.4-.2-.5-.7-.9-1.4-.9-.8 0-1.4.6-1.4 1.4 0 .2.1.6.2.7l.5.9c.2-.3.5-.5.9-.5.6 0 1 .4 1 1v.2h-1.2v1h1l-.8 1.5 1-.4.8.9.8-.9 1 .4-.8-1.5h1v-1H212v-.2c0-.5.5-1 1-1 .4 0 .8.2.9.5l.5-.9c.1-.2.2-.5.2-.7 0-.8-.6-1.4-1.4-1.4-.6 0-1.2.4-1.4.9 0 0 .6-1.1.6-2.4.4-1.4-1-2.8-1-2.8" class="st4"/>
  <path d="M211.4 260.9s-1.3 1.4-1.3 2.8c0 1.3.5 2.4.5 2.4-.2-.5-.7-.9-1.4-.9-.8 0-1.4.6-1.4 1.4 0 .2.1.6.2.7l.5.9c.2-.3.5-.5.9-.5.6 0 1 .4 1 1v.2h-1.2v1h1l-.8 1.5 1-.4.8.9.8-.9 1 .4-.8-1.5h1v-1H212v-.2c0-.5.5-1 1-1 .4 0 .8.2.9.5l.5-.9c.1-.2.2-.5.2-.7 0-.8-.6-1.4-1.4-1.4-.6 0-1.2.4-1.4.9 0 0 .6-1.1.6-2.4.4-1.4-1-2.8-1-2.8z" class="st54"/>
  <path d="M209.4 269.9h4.2v-1h-4.2v1z" class="st4"/>
  <path d="M209.4 269.9h4.2v-1h-4.2v1z" class="st55"/>
  <path d="M206.3 269.6s-1.3 1.4-1.3 2.8.6 2.4.6 2.4c-.2-.5-.7-.9-1.4-.9-.8 0-1.4.6-1.4 1.4 0 .2.1.6.2.7l.5.9c.2-.3.5-.5.9-.5.6 0 1 .4 1 1v.2h-1.2v1h1l-.8 1.5 1-.4.8.9.8-.9 1 .4-.8-1.5h1v-1H207v-.2c0-.5.5-1 1-1 .4 0 .8.2.9.5l.5-.9c.1-.2.2-.5.2-.7 0-.8-.6-1.4-1.4-1.4-.6 0-1.2.4-1.4.9 0 0 .6-1.1.6-2.4.3-1.3-1.1-2.8-1.1-2.8" class="st4"/>
  <path d="M206.3 269.6s-1.3 1.4-1.3 2.8.6 2.4.6 2.4c-.2-.5-.7-.9-1.4-.9-.8 0-1.4.6-1.4 1.4 0 .2.1.6.2.7l.5.9c.2-.3.5-.5.9-.5.6 0 1 .4 1 1v.2h-1.2v1h1l-.8 1.5 1-.4.8.9.8-.9 1 .4-.8-1.5h1v-1H207v-.2c0-.5.5-1 1-1 .4 0 .8.2.9.5l.5-.9c.1-.2.2-.5.2-.7 0-.8-.6-1.4-1.4-1.4-.6 0-1.2.4-1.4.9 0 0 .6-1.1.6-2.4.3-1.3-1.1-2.8-1.1-2.8z" class="st54"/>
  <path d="M204.3 278.6h4.2v-1h-4.2v1z" class="st4"/>
  <path d="M204.3 278.6h4.2v-1h-4.2v1z" class="st55"/>
  <path d="M237.6 223.4h-.3l-.3.3c-.2.2-.6.3-.8.1-.1-.1-.2-.2-.1-.4-.2.1-.3.1-.5 0s-.3-.5-.1-.8c0-.1.1-.1.1-.2v-.3l-.3.1-.1.2c-.2.2-.5.3-.7.2-.1-.1-.1-.2-.1-.3 0 0-.1.1-.2.1-.5.1-.7-1-.7-1.3l-.2.2s.2.7.1 1.2c-.1.6-.3 1.1-.3 1.1.7.2 1.8.8 2.9 1.6 1.1.8 1.9 1.7 2.2 2.3 0 0 .6-.3 1.1-.5.6-.2 1.3-.2 1.3-.2l.2-.2c-.3 0-1.5.1-1.5-.4 0-.1.1-.2.1-.2-.1 0-.2 0-.3-.1-.2-.1-.2-.4 0-.7l.2-.1v-.3h-.3l-.1.1c-.3.2-.6.2-.8 0-.1-.1-.2-.3-.1-.4h-.4c-.2-.1-.3-.5-.1-.8l.3-.3h-.2" class="st4"/>
  <path d="M237.6 223.4h-.3l-.3.3c-.2.2-.6.3-.8.1-.1-.1-.2-.2-.1-.4-.2.1-.3.1-.5 0s-.3-.5-.1-.8c0-.1.1-.1.1-.2v-.3l-.3.1-.1.2c-.2.2-.5.3-.7.2-.1-.1-.1-.2-.1-.3 0 0-.1.1-.2.1-.5.1-.7-1-.7-1.3l-.2.2s.2.7.1 1.2c-.1.6-.3 1.1-.3 1.1.7.2 1.8.8 2.9 1.6 1.1.8 1.9 1.7 2.2 2.3 0 0 .6-.3 1.1-.5.6-.2 1.3-.2 1.3-.2l.2-.2c-.3 0-1.5.1-1.5-.4 0-.1.1-.2.1-.2-.1 0-.2 0-.3-.1-.2-.1-.2-.4 0-.7l.2-.1v-.3h-.3l-.1.1c-.3.2-.6.2-.8 0-.1-.1-.2-.3-.1-.4h-.4c-.2-.1-.3-.5-.1-.8l.3-.3h-.2z" class="st5"/>
  <path d="M235.4 224.1c0-.1.1-.1.2 0s.1.1.1.2-.1.1-.2 0-.1-.2-.1-.2"/>
  <path d="M235.4 224.1c0-.1.1-.1.2 0s.1.1.1.2-.1.1-.2 0-.1-.2-.1-.2z" class="st16"/>
  <path d="M236.3 224.8l-.3-.2c-.1 0-.1-.1 0-.2h.2l.3.2.3.2c.1 0 .1.1 0 .2h-.2l-.3-.2"/>
  <path d="M236.3 224.8l-.3-.2c-.1 0-.1-.1 0-.2h.2l.3.2.3.2c.1 0 .1.1 0 .2h-.2l-.3-.2" class="st16"/>
  <path d="M234.6 223.7l-.2-.1c-.1 0-.1-.1-.1-.2s.1-.1.2 0l.2.1.3.1c.1 0 .1.1.1.2 0 0-.1.1-.2 0l-.3-.1"/>
  <path d="M234.6 223.7l-.2-.1c-.1 0-.1-.1-.1-.2s.1-.1.2 0l.2.1.3.1c.1 0 .1.1.1.2 0 0-.1.1-.2 0l-.3-.1" class="st16"/>
  <path d="M233.7 223c0-.1.1-.1.2 0s.1.1.1.2-.1.1-.2 0c-.2-.1-.2-.1-.1-.2"/>
  <path d="M233.7 223c0-.1.1-.1.2 0s.1.1.1.2-.1.1-.2 0c-.2-.1-.2-.1-.1-.2z" class="st16"/>
  <path d="M237.3 225.5c0-.1 0-.1-.1-.2s-.2-.1-.2 0 0 .1.1.2.2.1.2 0"/>
  <path d="M237.3 225.5c0-.1 0-.1-.1-.2s-.2-.1-.2 0 0 .1.1.2.2.1.2 0z" class="st16"/>
  <path d="M237.9 226.2l.2.2c.1 0 .1.1.2 0v-.1l-.3-.3-.2-.2c-.1 0-.1-.1-.2 0v.2l.3.2"/>
  <path d="M237.9 226.2l.2.2c.1 0 .1.1.2 0v-.1l-.3-.3-.2-.2c-.1 0-.1-.1-.2 0v.2l.3.2" class="st16"/>
  <path d="M238.8 226.9c0-.1 0-.1-.1-.2s-.2-.1-.2 0 0 .1.1.2c0 .1.1.1.2 0"/>
  <path d="M238.8 226.9c0-.1 0-.1-.1-.2s-.2-.1-.2 0 0 .1.1.2c0 .1.1.1.2 0z" class="st16"/>
  <path d="M236.1 221.1h-.6l-.1.8.1.1h.1l.7-.5-.2-.4" class="st4"/>
  <path d="M236.1 221.1h-.6l-.1.8.1.1h.1l.7-.5-.2-.4" class="st5"/>
  <path d="M234.6 221.6v.5l.9.1.1-.1v-.1l-.5-.7-.5.3" class="st4"/>
  <path d="M234.6 221.6v.5l.9.1.1-.1v-.1l-.5-.7-.5.3" class="st5"/>
  <path d="M236.4 222.6l-.5.3-.5-.7v-.1l.1-.1.9.1v.5" class="st4"/>
  <path d="M236.4 222.6l-.5.3-.5-.7v-.1l.1-.1.9.1v.5" class="st5"/>
  <path d="M235.3 222c.1-.1.2-.2.4-.1.1.1.2.2.1.3-.1.1-.2.2-.4.1-.1 0-.2-.2-.1-.3" class="st4"/>
  <path d="M235.3 222c.1-.1.2-.2.4-.1.1.1.2.2.1.3-.1.1-.2.2-.4.1-.1 0-.2-.2-.1-.3z" class="st5"/>
  <path d="M233.2 221.1s-.1-.4-.2-.7c-.1-.2-.4-.4-.4-.4 0-.1.4-.2.8.1.4.3 0 .8 0 .8s-.1.2-.2.2" class="st4"/>
  <path d="M233.2 221.1s-.1-.4-.2-.7c-.1-.2-.4-.4-.4-.4 0-.1.4-.2.8.1.4.3 0 .8 0 .8s-.1.2-.2.2z" class="st5"/>
  <path d="M234.2 221.4l-.4.3-.7-.6.1-.1v-.1l.9-.1.1.6" class="st4"/>
  <path d="M234.2 221.4l-.4.3-.7-.6.1-.1v-.1l.9-.1.1.6" class="st5"/>
  <path d="M233.1 221.1c.1-.1.2-.2.3-.2.1 0 .1.2.1.3-.1.1-.2.2-.3.2-.1 0-.1-.2-.1-.3" class="st4"/>
  <path d="M233.1 221.1c.1-.1.2-.2.3-.2.1 0 .1.2.1.3-.1.1-.2.2-.3.2-.1 0-.1-.2-.1-.3z" class="st5"/>
  <path d="M238.3 222.5l-.6-.1-.2.8v.1h.1l.8-.4-.1-.4" class="st4"/>
  <path d="M238.3 222.5l-.6-.1-.2.8v.1h.1l.8-.4-.1-.4" class="st5"/>
  <path d="M236.7 222.8l-.1.5.9.2h.1v-.1l-.4-.8-.5.2" class="st4"/>
  <path d="M236.7 222.8l-.1.5.9.2h.1v-.1l-.4-.8-.5.2" class="st5"/>
  <path d="M238.4 224l-.5.2-.4-.8v-.1h.1l.9.2-.1.5" class="st4"/>
  <path d="M238.4 224l-.5.2-.4-.8v-.1h.1l.9.2-.1.5" class="st5"/>
  <path d="M237.3 223.2c.1-.1.3-.1.4 0 .1.1.1.2.1.3-.1.1-.3.1-.4 0-.1 0-.1-.1-.1-.3" class="st4"/>
  <path d="M237.3 223.2c.1-.1.3-.1.4 0 .1.1.1.2.1.3-.1.1-.3.1-.4 0-.1 0-.1-.1-.1-.3z" class="st5"/>
  <path d="M240.2 224.3l.1.5-.8.3h-.1v-.1l.3-.8.5.1" class="st4"/>
  <path d="M240.2 224.3l.1.5-.8.3h-.1v-.1l.3-.8.5.1" class="st5"/>
  <path d="M240.1 225.8l-.5.1-.3-.8v-.1h.1l.8.3-.1.5" class="st4"/>
  <path d="M240.1 225.8l-.5.1-.3-.8v-.1h.1l.8.3-.1.5" class="st5"/>
  <path d="M238.6 224.3l-.2.5.8.3h.1v-.1l-.3-.8-.4.1" class="st4"/>
  <path d="M238.6 224.3l-.2.5.8.3h.1v-.1l-.3-.8-.4.1" class="st5"/>
  <path d="M239.5 225.2c.1-.1.1-.3 0-.4-.1-.1-.3-.1-.4 0-.1.1-.1.3 0 .4.1.1.3.1.4 0" class="st4"/>
  <path d="M239.5 225.2c.1-.1.1-.3 0-.4-.1-.1-.3-.1-.4 0-.1.1-.1.3 0 .4.1.1.3.1.4 0z" class="st5"/>
  <path d="M240.8 227s.5 0 .8.1c.2 0 .5.3.5.3.1 0 .1-.4-.3-.8-.4-.3-.9.2-.9.2s0 .1-.1.2" class="st4"/>
  <path d="M240.8 227s.5 0 .8.1c.2 0 .5.3.5.3.1 0 .1-.4-.3-.8-.4-.3-.9.2-.9.2s0 .1-.1.2z" class="st5"/>
  <path d="M240.3 226.1l-.3.4.7.5.1-.1h.1l-.1-.8h-.5" class="st4"/>
  <path d="M240.3 226.1l-.3.4.7.5.1-.1h.1l-.1-.8h-.5" class="st5"/>
  <path d="M240.9 227.1c.1-.1.2-.2.1-.3-.1-.1-.2-.1-.3 0-.1.1-.2.2-.1.3h.3" class="st4"/>
  <path d="M240.9 227.1c.1-.1.2-.2.1-.3-.1-.1-.2-.1-.3 0-.1.1-.2.2-.1.3h.3z" class="st5"/>
  <path d="M279.1 205.1v.6h-2.4v-.6h.9v-1.3h-.6v-.6h.6v-.5h.6v.5h.6v.6h-.6v1.3h.9" class="st6"/>
  <path d="M134.4 217.1v-1.2" class="st56"/>
  <path d="M134.1 217.1v-1.2" class="st57"/>
  <path d="M133.8 217.1v-1.2m-.3 1.2v-1.2" class="st58"/>
  <path d="M133.2 217.1v-1.2" class="st16"/>
  <path d="M132.7 217v-1.1m.2 1.2v-1.2" class="st59"/>
  <path d="M132.2 217v-1m.2 1v-1.1" class="st60"/>
  <path d="M131.5 216.9v-.9m.2.9v-.9m.3 1v-1" class="st61"/>
  <path d="M131.3 216.9v-.9" class="st19"/>
  <path d="M131.1 216.9v-.8" class="st62"/>
  <path d="M130.9 216.9v-.8" class="st63"/>
  <path d="M130.4 216.8v-.6m.2.6v-.7m-.4.6v-.5" class="st64"/>
  <path d="M129.9 216.7v-.4" class="st65"/>
  <path d="M129.7 216.6v-.3" class="st20"/>
  <path d="M129.4 216.6v-.3" class="st66"/>
  <path d="M129.2 216.6v-.1" class="st21"/>
  <path d="M135.7 217v-1.1m-.5 1.2v-1.2m-.4 1.2v-1.2" class="st67"/>
  <path d="M277.8 217.1v-1.2" class="st56"/>
  <path d="M277.4 217.1v-1.2" class="st57"/>
  <path d="M277.1 217.1v-1.2m-.3 1.2v-1.2" class="st58"/>
  <path d="M276.5 217.1v-1.2" class="st16"/>
  <path d="M276 217.1V216m.3 1.1v-1.2" class="st59"/>
  <path d="M275.5 217v-1m.3 1v-1.1" class="st60"/>
  <path d="M274.9 216.9v-.9m.2 1v-1m.2 1v-1" class="st61"/>
  <path d="M274.7 216.9v-.9" class="st19"/>
  <path d="M274.4 216.9v-.8" class="st62"/>
  <path d="M274.2 216.9v-.8" class="st63"/>
  <path d="M273.8 216.8v-.6m.2.6v-.7m-.5.7v-.5" class="st64"/>
  <path d="M273.3 216.7v-.4" class="st65"/>
  <path d="M273.1 216.7v-.3" class="st20"/>
  <path d="M272.8 216.6v-.3" class="st66"/>
  <path d="M272.5 216.6v-.1" class="st21"/>
  <path d="M279.1 217.1V216m-.6 1.1v-1.2m-.4 1.2v-1.2" class="st67"/>
</svg>
